<svg width="18" height="16" viewBox="0 0 18 16" fill="none" xmlns="http://www.w3.org/2000/svg">
<path d="M8.62512 1.79267L9 2.21743L9.37488 1.79267C9.89473 1.20364 10.6538 0.833328 11.5 0.833328H16.0833C16.7277 0.833328 17.25 1.35566 17.25 1.99999V12C17.25 12.6444 16.7277 13.1667 16.0833 13.1667H11.5C10.6791 13.1667 9.96569 13.6234 9.59851 14.2941L9.59849 14.2941C9.50661 14.4619 9.39715 14.6075 9.28276 14.7056C9.17091 14.8015 9.07802 14.8333 9 14.8333C8.92198 14.8333 8.82909 14.8015 8.71724 14.7056C8.60285 14.6075 8.49339 14.4619 8.40151 14.2941L8.40149 14.2941C8.03431 13.6234 7.32088 13.1667 6.5 13.1667H1.91667C1.27233 13.1667 0.75 12.6443 0.75 12V1.99999C0.75 1.35566 1.27233 0.833328 1.91667 0.833328H6.5C7.34618 0.833328 8.10527 1.20364 8.62512 1.79267ZM9.33333 12.4459V13.3128L10.0837 12.8787C10.4999 12.638 10.9831 12.5 11.5 12.5H16.0833H16.5833V12V1.99999V1.49999H16.0833H11.5C10.3034 1.49999 9.33333 2.47005 9.33333 3.66666V12.4459ZM7.91631 12.8787L8.66667 13.3128V12.4459V3.66666C8.66667 2.47005 7.69665 1.49999 6.5 1.49999H1.91667H1.41667V1.99999V12V12.5H1.91667H6.5C7.01691 12.5 7.50011 12.638 7.91631 12.8787Z" fill="white" fill-opacity="0.93" stroke="black"/>
</svg>
