<svg width="18" height="20" viewBox="0 0 18 20" fill="none" xmlns="http://www.w3.org/2000/svg">
<path fill-rule="evenodd" clip-rule="evenodd" d="M9.00026 13.3333C10.8413 13.3333 12.3336 11.8409 12.3336 10C12.3336 8.15905 10.8413 6.66667 9.00026 6.66667C7.15934 6.66667 5.66695 8.15905 5.66695 10C5.66695 11.8409 7.15934 13.3333 9.00026 13.3333ZM9.00026 11.6667C9.92076 11.6667 10.6669 10.9205 10.6669 10C10.6669 9.0795 9.92076 8.33334 9.00026 8.33334C8.07984 8.33334 7.33359 9.0795 7.33359 10C7.33359 10.9205 8.07984 11.6667 9.00026 11.6667Z" fill="white" fill-opacity="0.93"/>
<path fill-rule="evenodd" clip-rule="evenodd" d="M11.5986 1.55408L11.9337 4.01172C12.2063 4.14554 12.4685 4.29742 12.7187 4.46582L15.0155 3.52686C15.4012 3.36917 15.8442 3.52067 16.0526 3.88156L17.8252 6.95178C18.0335 7.31268 17.9432 7.772 17.6138 8.02722L15.6518 9.54717C15.6618 9.69683 15.6669 9.84783 15.6669 10C15.6669 10.1522 15.6618 10.3032 15.6518 10.4528L17.6138 11.9728C17.9432 12.228 18.0335 12.6873 17.8252 13.0483L16.0526 16.1184C15.8442 16.4793 15.4012 16.6308 15.0155 16.4732L12.7187 15.5342C12.4685 15.7026 12.2063 15.8545 11.9337 15.9883L11.5986 18.4459C11.5422 18.8588 11.1896 19.1667 10.7728 19.1667H7.22769C6.81096 19.1667 6.45831 18.8588 6.402 18.4459L6.06686 15.9883C5.79421 15.8545 5.53204 15.7026 5.2819 15.5342L2.98504 16.4732C2.59931 16.6308 2.15638 16.4793 1.94801 16.1184L0.17543 13.0483C-0.0329365 12.6873 0.0573219 12.228 0.386755 11.9728L2.34876 10.4528C2.33871 10.3032 2.33362 10.1522 2.33362 10C2.33362 9.84783 2.33871 9.69683 2.34876 9.54717L0.386755 8.02722C0.0573219 7.772 -0.0329365 7.31268 0.175422 6.95178L1.94801 3.88156C2.15637 3.52067 2.5993 3.36917 2.98504 3.52686L5.2819 4.46582C5.53204 4.29742 5.79421 4.14554 6.06686 4.01172L6.402 1.55408C6.45831 1.14117 6.81096 0.833336 7.22769 0.833336H10.7728C11.1896 0.833336 11.5422 1.14117 11.5986 1.55408ZM10.4022 5.11669L11.1994 5.5079C11.4036 5.60813 11.6002 5.72199 11.7879 5.84838L12.5259 6.34519L14.9729 5.34485L16.0181 7.15516L13.9295 8.77317L13.9889 9.65875C13.9964 9.77125 14.0002 9.88508 14.0002 10C14.0002 10.1149 13.9964 10.2288 13.9889 10.3413L13.9295 11.2268L16.0181 12.8448L14.9729 14.6552L12.5259 13.6548L11.7879 14.1517C11.6002 14.278 11.4036 14.3918 11.1994 14.4921L10.4022 14.8833L10.0455 17.5H7.95508L7.59825 14.8833L6.80117 14.4921C6.59696 14.3918 6.40039 14.278 6.21266 14.1517L5.4747 13.6548L3.02769 14.6552L1.98251 12.8448L4.07108 11.2268L4.01168 10.3413C4.00414 10.2288 4.00028 10.1149 4.00028 10C4.00028 9.88508 4.00414 9.77125 4.01168 9.65875L4.07108 8.77317L1.98251 7.15516L3.02768 5.34485L5.47469 6.34519L6.21266 5.84838C6.40039 5.72199 6.59696 5.60814 6.80117 5.50791L7.59825 5.1167L7.95508 2.5H10.0455L10.4022 5.11669Z" fill="white" fill-opacity="0.93"/>
<path d="M11.4742 4.34321L11.4382 4.07927L11.1032 1.62167C11.1032 1.62165 11.1032 1.62164 11.1032 1.62162C11.0806 1.45646 10.9395 1.33334 10.7728 1.33334H7.22769C7.061 1.33334 6.91994 1.45647 6.89741 1.62163L6.56228 4.07928L6.52629 4.34321L6.28716 4.46057C6.03504 4.58431 5.79254 4.72479 5.56113 4.88059L5.33974 5.02963L5.0927 4.92864L2.79584 3.98968C2.64154 3.9266 2.46437 3.98721 2.38103 4.13156L2.38103 4.13156L0.608438 7.20177C0.608437 7.20177 0.608436 7.20177 0.608434 7.20178C0.525092 7.34614 0.561199 7.52987 0.692966 7.63195C0.692967 7.63195 0.692969 7.63195 0.692971 7.63196L2.65497 9.1519L2.86546 9.31497L2.84763 9.58064C2.83834 9.71916 2.83362 9.85899 2.83362 10C2.83362 10.141 2.83834 10.2808 2.84763 10.4194L2.86546 10.685L2.65496 10.8481L0.692996 12.368C0.692984 12.368 0.692973 12.368 0.692961 12.368C0.561185 12.4702 0.525098 12.6539 0.608447 12.7983L2.38102 15.8684L2.38103 15.8684C2.46438 16.0128 2.64154 16.0734 2.79583 16.0103C2.79584 16.0103 2.79585 16.0103 2.79586 16.0103L5.09269 15.0714L5.33975 14.9703L5.56115 15.1194C5.79258 15.2752 6.03504 15.4157 6.28707 15.5394L6.52628 15.6567L6.56228 15.9207L6.89741 18.3784C6.91994 18.5435 7.06101 18.6667 7.22769 18.6667H10.7728C10.9395 18.6667 11.0806 18.5435 11.1032 18.3784C11.1032 18.3784 11.1032 18.3783 11.1032 18.3783L11.4382 15.9207L11.4742 15.6567L11.7135 15.5393C11.9655 15.4157 12.208 15.2752 12.4394 15.1194L12.6608 14.9704L12.9079 15.0714L15.2047 16.0103C15.2047 16.0103 15.2047 16.0103 15.2047 16.0104C15.359 16.0734 15.5362 16.0128 15.6196 15.8684L11.4742 4.34321ZM11.4742 4.34321L11.7134 4.46058C11.9655 4.58431 12.208 4.72479 12.4395 4.8806L12.6608 5.02962L12.9079 4.92864L15.2047 3.98968C15.359 3.92661 15.5362 3.98719 15.6196 4.13161L17.3921 7.20175C17.4755 7.34614 17.4394 7.52988 17.3076 7.63196L15.3456 9.1519L15.1352 9.31491L15.1529 9.5805C15.1622 9.71909 15.1669 9.85898 15.1669 10C15.1669 10.141 15.1622 10.2809 15.1529 10.4195L15.1352 10.6851L15.3456 10.8481L17.3076 12.368C17.3076 12.368 17.3076 12.368 17.3076 12.368C17.4394 12.4701 17.4755 12.6539 17.3922 12.7982C17.3921 12.7983 17.3921 12.7983 17.3921 12.7983L15.6196 15.8684L11.4742 4.34321ZM11.4197 5.05907L11.4197 5.05904L10.8617 4.78519L10.5409 2.43246L10.482 2H10.0455H7.95508H7.51864L7.45967 2.43244L7.13882 4.78521L6.58088 5.05905C6.35613 5.16935 6.13989 5.29462 5.93344 5.43361C5.93343 5.43361 5.93343 5.43361 5.93343 5.43361L5.41685 5.78138L3.21688 4.88203L2.81289 4.71688L2.59467 5.09485L1.54949 6.90516L1.33127 7.28314L1.67629 7.55043L3.55438 9.00537L3.5128 9.62529L3.5128 9.62531C3.50451 9.74891 3.50028 9.8739 3.50028 10C3.50028 10.1261 3.50451 10.2511 3.5128 10.3747L3.5128 10.3747L3.55438 10.9946L1.6763 12.4496L1.33127 12.7169L1.54949 13.0948L2.59467 14.9052L2.8129 15.2831L3.21689 15.118L5.41685 14.2186L5.93343 14.5664L5.93351 14.5665C6.13994 14.7054 6.35616 14.8306 6.58083 14.9409L6.58085 14.9409L7.13882 15.2148L7.45967 17.5676L7.51864 18H7.95508H10.0455H10.482L10.5409 17.5675L10.8617 15.2148L11.4197 14.9409L11.4198 14.9409C11.6444 14.8306 11.8606 14.7054 12.067 14.5665L12.0671 14.5664L12.5838 14.2186L14.7837 15.118L15.1877 15.2831L15.4059 14.9052L16.4511 13.0948L16.6693 12.7169L16.3243 12.4496L14.4462 10.9946L14.4878 10.3747L14.4878 10.3745C14.496 10.251 14.5002 10.126 14.5002 10C14.5002 9.87397 14.496 9.74905 14.4878 9.62549L14.4878 9.62528L14.4462 9.00537L16.3243 7.55043L16.6693 7.28314L16.4511 6.90516L15.4059 5.09485L15.1877 4.71688L14.7837 4.88203L12.5837 5.78138L12.0671 5.43361L12.0671 5.4336C11.8607 5.29462 11.6444 5.16936 11.4197 5.05907ZM11.8336 10C11.8336 11.5648 10.5651 12.8333 9.00026 12.8333C7.43548 12.8333 6.16695 11.5648 6.16695 10C6.16695 8.43519 7.43548 7.16667 9.00026 7.16667C10.5651 7.16667 11.8336 8.43519 11.8336 10ZM9.00026 12.1667C10.1969 12.1667 11.1669 11.1966 11.1669 10C11.1669 8.80336 10.1969 7.83333 9.00026 7.83333C7.80372 7.83333 6.83359 8.80334 6.83359 10C6.83359 11.1967 7.80372 12.1667 9.00026 12.1667Z" stroke="black"/>
</svg>
