<svg width="18" height="17" viewBox="0 0 18 17" fill="none" xmlns="http://www.w3.org/2000/svg">
<mask id="path-1-inside-1_502_32" fill="white">
<path fill-rule="evenodd" clip-rule="evenodd" d="M2.33395 8.16663V15.6666C2.33395 16.1268 2.70704 16.5 3.16728 16.5H7.33392C7.79417 16.5 8.16725 16.1268 8.16725 15.6666V10.6666H9.83392V15.6666C9.83392 16.1268 10.2071 16.5 10.6672 16.5H14.8339C15.2942 16.5 15.6672 16.1268 15.6672 15.6666V8.16663H17.1799C17.57 8.16663 17.7462 7.67854 17.4461 7.42938L10.0653 1.30068C9.44808 0.788118 8.55317 0.788118 7.93592 1.30068L0.555125 7.42938C0.255025 7.67854 0.431233 8.16663 0.821308 8.16663H2.33395ZM11.5006 10.6666V14.8333H14.0006V6.73471L9.00058 2.58293L4.00061 6.73472V8.16279L4.00062 8.16663V14.8333H6.50062L6.50061 9.83329C6.50061 9.37304 6.87371 8.99996 7.33392 8.99996H10.6672C11.1275 8.99996 11.5006 9.37304 11.5006 9.83329V10.663V10.6666Z"/>
</mask>
<path fill-rule="evenodd" clip-rule="evenodd" d="M2.33395 8.16663V15.6666C2.33395 16.1268 2.70704 16.5 3.16728 16.5H7.33392C7.79417 16.5 8.16725 16.1268 8.16725 15.6666V10.6666H9.83392V15.6666C9.83392 16.1268 10.2071 16.5 10.6672 16.5H14.8339C15.2942 16.5 15.6672 16.1268 15.6672 15.6666V8.16663H17.1799C17.57 8.16663 17.7462 7.67854 17.4461 7.42938L10.0653 1.30068C9.44808 0.788118 8.55317 0.788118 7.93592 1.30068L0.555125 7.42938C0.255025 7.67854 0.431233 8.16663 0.821308 8.16663H2.33395ZM11.5006 10.6666V14.8333H14.0006V6.73471L9.00058 2.58293L4.00061 6.73472V8.16279L4.00062 8.16663V14.8333H6.50062L6.50061 9.83329C6.50061 9.37304 6.87371 8.99996 7.33392 8.99996H10.6672C11.1275 8.99996 11.5006 9.37304 11.5006 9.83329V10.663V10.6666Z" fill="#4FC62B"/>
<path d="M2.33395 8.16663H3.33395V7.16663H2.33395V8.16663ZM8.16725 10.6666V9.66663H7.16725V10.6666H8.16725ZM9.83392 10.6666H10.8339V9.66663H9.83392V10.6666ZM15.6672 8.16663V7.16663H14.6672V8.16663H15.6672ZM17.4461 7.42938L16.8072 8.19872L16.8073 8.19874L17.4461 7.42938ZM10.0653 1.30068L9.42648 2.07001L9.4265 2.07003L10.0653 1.30068ZM7.93592 1.30068L8.57475 2.07003L8.57477 2.07001L7.93592 1.30068ZM0.555125 7.42938L1.19392 8.19875L1.19396 8.19872L0.555125 7.42938ZM11.5006 14.8333H10.5006V15.8333H11.5006V14.8333ZM14.0006 14.8333V15.8333H15.0006V14.8333H14.0006ZM14.0006 6.73471H15.0006V6.26526L14.6394 5.96536L14.0006 6.73471ZM9.00058 2.58293L9.63942 1.81358L9.00058 1.28312L8.36175 1.81358L9.00058 2.58293ZM4.00061 6.73472L3.36177 5.96537L3.00061 6.26527V6.73472H4.00061ZM4.00061 8.16279L3.00061 8.16279L3.00061 8.16497L4.00061 8.16279ZM4.00062 8.16663L5.00062 8.16663L5.00061 8.16445L4.00062 8.16663ZM4.00062 14.8333H3.00062V15.8333H4.00062V14.8333ZM6.50062 14.8333V15.8333H7.50062L7.50062 14.8333L6.50062 14.8333ZM6.50061 9.83329L5.50061 9.83329L5.50061 9.8333L6.50061 9.83329ZM1.33395 8.16663V15.6666H3.33395V8.16663H1.33395ZM1.33395 15.6666C1.33395 16.679 2.1547 17.5 3.16728 17.5V15.5C3.25939 15.5 3.33395 15.5746 3.33395 15.6666H1.33395ZM3.16728 17.5H7.33392V15.5H3.16728V17.5ZM7.33392 17.5C8.34652 17.5 9.16725 16.679 9.16725 15.6666H7.16725C7.16725 15.5746 7.24182 15.5 7.33392 15.5V17.5ZM9.16725 15.6666V10.6666H7.16725V15.6666H9.16725ZM8.16725 11.6666H9.83392V9.66663H8.16725V11.6666ZM8.83392 10.6666V15.6666H10.8339V10.6666H8.83392ZM8.83392 15.6666C8.83392 16.6791 9.6548 17.5 10.6672 17.5V15.5C10.7594 15.5 10.8339 15.5745 10.8339 15.6666H8.83392ZM10.6672 17.5H14.8339V15.5H10.6672V17.5ZM14.8339 17.5C15.8465 17.5 16.6672 16.679 16.6672 15.6666H14.6672C14.6672 15.5746 14.7418 15.5 14.8339 15.5V17.5ZM16.6672 15.6666V8.16663H14.6672V15.6666H16.6672ZM15.6672 9.16663H17.1799V7.16663H15.6672V9.16663ZM17.1799 9.16663C18.5064 9.16663 19.1051 7.50711 18.0849 6.66002L16.8073 8.19874C16.3872 7.84998 16.6336 7.16663 17.1799 7.16663V9.16663ZM18.0849 6.66003L10.7042 0.53134L9.4265 2.07003L16.8072 8.19872L18.0849 6.66003ZM10.7042 0.531356C9.71656 -0.288772 8.28469 -0.288772 7.29706 0.531356L8.57477 2.07001C8.82164 1.86501 9.17961 1.86501 9.42648 2.07001L10.7042 0.531356ZM7.29708 0.531339L-0.0837069 6.66003L1.19396 8.19872L8.57475 2.07003L7.29708 0.531339ZM-0.0836713 6.66C-1.10408 7.50722 -0.504933 9.16663 0.821308 9.16663V7.16663C1.3674 7.16663 1.61413 7.84986 1.19392 8.19875L-0.0836713 6.66ZM0.821308 9.16663H2.33395V7.16663H0.821308V9.16663ZM10.5006 10.6666V14.8333H12.5006V10.6666H10.5006ZM11.5006 15.8333H14.0006V13.8333H11.5006V15.8333ZM15.0006 14.8333V6.73471H13.0006V14.8333H15.0006ZM14.6394 5.96536L9.63942 1.81358L8.36175 3.35227L13.3618 7.50406L14.6394 5.96536ZM8.36175 1.81358L3.36177 5.96537L4.63944 7.50406L9.63942 3.35227L8.36175 1.81358ZM3.00061 6.73472V8.16279H5.00061V6.73472H3.00061ZM3.00061 8.16497L3.00062 8.1688L5.00061 8.16445L5.00061 8.16062L3.00061 8.16497ZM3.00062 8.16663V14.8333H5.00062V8.16663H3.00062ZM4.00062 15.8333H6.50062V13.8333H4.00062V15.8333ZM7.50062 14.8333L7.50061 9.83329L5.50061 9.8333L5.50062 14.8333L7.50062 14.8333ZM7.50061 9.83329C7.50061 9.92532 7.426 9.99996 7.33392 9.99996V7.99996C6.32142 7.99996 5.50061 8.82077 5.50061 9.83329H7.50061ZM7.33392 9.99996H10.6672V7.99996H7.33392V9.99996ZM10.6672 9.99996C10.5752 9.99996 10.5006 9.92533 10.5006 9.83329H12.5006C12.5006 8.82076 11.6798 7.99996 10.6672 7.99996V9.99996ZM10.5006 9.83329V10.663H12.5006V9.83329H10.5006ZM10.5006 10.663V10.6666H12.5006V10.663H10.5006Z" fill="black" mask="url(#path-1-inside-1_502_32)"/>
</svg>
