<svg width="22" height="16" viewBox="0 0 22 16" fill="none" xmlns="http://www.w3.org/2000/svg">
<path fill-rule="evenodd" clip-rule="evenodd" d="M15.0001 8C15.0001 10.2091 13.2092 12 11.0001 12C8.79097 12 7.0001 10.2091 7.0001 8C7.0001 5.79086 8.79097 4 11.0001 4C13.2092 4 15.0001 5.79086 15.0001 8ZM13.0001 8C13.0001 9.1046 12.1047 10 11.0001 10C9.8955 10 9.0001 9.1046 9.0001 8C9.0001 6.8954 9.8955 6 11.0001 6C12.1047 6 13.0001 6.8954 13.0001 8Z" fill="#95E1D3"/>
<path fill-rule="evenodd" clip-rule="evenodd" d="M21.6059 8.7781C21.8745 8.2893 21.8745 7.7107 21.6059 7.2219C20.5011 5.21142 17.0534 0 11.0001 0C4.94677 0 1.49915 5.21141 0.394351 7.2219C0.125711 7.7107 0.125711 8.2893 0.394351 8.7781C1.49915 10.7886 4.94677 16 11.0001 16C17.0534 16 20.5011 10.7886 21.6059 8.7781ZM19.7495 8C19.2262 7.0814 18.2538 5.61152 16.8334 4.35493C15.3304 3.02516 13.4072 2 11.0001 2C8.59298 2 6.66981 3.02516 5.16677 4.35493C3.74644 5.61152 2.77399 7.0814 2.25071 8C2.77399 8.9186 3.74644 10.3885 5.16677 11.6451C6.66981 12.9748 8.59298 14 11.0001 14C13.4072 14 15.3304 12.9748 16.8334 11.6451C18.2538 10.3885 19.2262 8.9186 19.7495 8Z" fill="#95E1D3"/>
</svg>
