<svg width="21" height="20" viewBox="0 0 21 20" fill="none" xmlns="http://www.w3.org/2000/svg">
<path fill-rule="evenodd" clip-rule="evenodd" d="M13.774 3.38807L13 7H18C19.6569 7 21 8.34315 21 10V13.0557C21 13.6767 20.8554 14.2892 20.5777 14.8446L18.8292 18.3416C18.321 19.358 17.2822 20 16.1459 20H2C0.89543 20 0 19.1046 0 18V10C0 8.89543 0.89543 8 2 8H5L9.4514 0.87769C9.7927 0.33169 10.3911 0 11.035 0C12.8184 0 14.1476 1.64432 13.774 3.38807ZM5 10H2V18H5V10ZM17.0403 17.4472C16.8709 17.786 16.5247 18 16.1459 18H7V8.57359L11.1065 2.00312C11.58 2.04459 11.9202 2.4939 11.8184 2.96901L11.0444 6.58094C10.9178 7.17152 11.065 7.78766 11.4447 8.25736C11.8244 8.72705 12.396 9 13 9H18C18.5523 9 19 9.4477 19 10V13.0557C19 13.3662 18.9277 13.6724 18.7889 13.9502L17.0403 17.4472Z" fill="#1991FF"/>
</svg>
