<svg width="22" height="18" viewBox="0 0 22 18" fill="none" xmlns="http://www.w3.org/2000/svg">
<path d="M11 2.12153L10.8635 1.99264C9.7014 0.855542 8.14236 0.215362 6.5165 0.207642C4.92264 0.207642 3.39391 0.840081 2.2659 1.96612C1.13789 3.09216 0.50278 4.61979 0.5 6.21364C0.5 9.4476 1.6865 10.9911 6.989 15.1806L9.7737 17.3421C10.4953 17.9022 11.5047 17.9022 12.2263 17.3421L15.011 15.1806C20.3135 10.9911 21.5 9.4476 21.5 6.21364C21.4972 4.61979 20.8621 3.09216 19.7341 1.96612C18.6061 0.840081 17.0773 0.207642 15.4835 0.207642C13.8576 0.215362 12.2986 0.855542 11.1365 1.99264L11 2.12153Z" fill="#FF3A30"/>
</svg>
