<svg width="20" height="20" viewBox="0 0 20 20" fill="none" xmlns="http://www.w3.org/2000/svg">
<path d="M10 7.5C11.1046 7.5 12 6.60457 12 5.5C12 4.39543 11.1046 3.5 10 3.5C8.8954 3.5 8 4.39543 8 5.5C8 6.60457 8.8954 7.5 10 7.5Z" fill="#4FC62B"/>
<path fill-rule="evenodd" clip-rule="evenodd" d="M2 0C0.89543 0 0 0.89543 0 2V9C0 10.1046 0.89543 11 2 11H18C19.1046 11 20 10.1046 20 9V2C20 0.89543 19.1046 0 18 0H2ZM2 2V9H18V2H2Z" fill="#4FC62B"/>
<path d="M20 19C20 19.5523 19.5523 20 19 20H1C0.44772 20 0 19.5523 0 19C0 18.4477 0.44772 18 1 18H19C19.5523 18 20 18.4477 20 19Z" fill="#4FC62B"/>
<path d="M20 14.5C20 15.0523 19.5523 15.5 19 15.5H1C0.44772 15.5 0 15.0523 0 14.5C0 13.9477 0.44772 13.5 1 13.5H19C19.5523 13.5 20 13.9477 20 14.5Z" fill="#4FC62B"/>
</svg>
