<svg width="16" height="16" viewBox="0 0 16 16" fill="none" xmlns="http://www.w3.org/2000/svg">
<path fill-rule="evenodd" clip-rule="evenodd" d="M10.5 0.5C9.5795 0.5 8.83333 1.24619 8.83333 2.16667V5.5C8.83333 6.4205 9.5795 7.16667 10.5 7.16667H13.8333C14.7538 7.16667 15.5 6.4205 15.5 5.5V2.16667C15.5 1.24619 14.7538 0.5 13.8333 0.5H10.5ZM10.5 2.16667H13.8333V5.5H10.5V2.16667Z" fill="white" fill-opacity="0.93"/>
<path fill-rule="evenodd" clip-rule="evenodd" d="M8.83333 10.5C8.83333 9.5795 9.5795 8.83333 10.5 8.83333H13.8333C14.7538 8.83333 15.5 9.5795 15.5 10.5V13.8333C15.5 14.7538 14.7538 15.5 13.8333 15.5H10.5C9.5795 15.5 8.83333 14.7538 8.83333 13.8333V10.5ZM10.5 10.5H13.8333V13.8333H10.5V10.5Z" fill="white" fill-opacity="0.93"/>
<path fill-rule="evenodd" clip-rule="evenodd" d="M2.16667 8.83333C1.24619 8.83333 0.5 9.5795 0.5 10.5V13.8333C0.5 14.7538 1.24619 15.5 2.16667 15.5H5.5C6.4205 15.5 7.16667 14.7538 7.16667 13.8333V10.5C7.16667 9.5795 6.4205 8.83333 5.5 8.83333H2.16667ZM2.16667 10.5H5.5V13.8333H2.16667V10.5Z" fill="white" fill-opacity="0.93"/>
<path fill-rule="evenodd" clip-rule="evenodd" d="M2.16667 0.5C1.24619 0.5 0.5 1.24619 0.5 2.16667V5.5C0.5 6.4205 1.24619 7.16667 2.16667 7.16667H5.5C6.4205 7.16667 7.16667 6.4205 7.16667 5.5V2.16667C7.16667 1.24619 6.4205 0.5 5.5 0.5H2.16667ZM2.16667 2.16667H5.5V5.5H2.16667V2.16667Z" fill="white" fill-opacity="0.93"/>
</svg>
