<svg width="16" height="16" viewBox="0 0 16 16" fill="none" xmlns="http://www.w3.org/2000/svg">
<path d="M8 12.1667C7.53975 12.1667 7.16667 11.7936 7.16667 11.3333V4.66667C7.16667 4.20643 7.53975 3.83333 8 3.83333C8.46025 3.83333 8.83333 4.20643 8.83333 4.66667V11.3333C8.83333 11.7936 8.46025 12.1667 8 12.1667Z" fill="white" fill-opacity="0.93"/>
<path d="M4.66667 12.1667C4.20643 12.1667 3.83333 11.7936 3.83333 11.3333V7.16667C3.83333 6.70642 4.20643 6.33333 4.66667 6.33333C5.12691 6.33333 5.5 6.70642 5.5 7.16667V11.3333C5.5 11.7936 5.12691 12.1667 4.66667 12.1667Z" fill="white" fill-opacity="0.93"/>
<path d="M11.3333 12.1667C10.8731 12.1667 10.5 11.7936 10.5 11.3333V8.83333C10.5 8.37308 10.8731 8 11.3333 8C11.7936 8 12.1667 8.37308 12.1667 8.83333V11.3333C12.1667 11.7936 11.7936 12.1667 11.3333 12.1667Z" fill="white" fill-opacity="0.93"/>
<path fill-rule="evenodd" clip-rule="evenodd" d="M0.5 2.16667C0.5 1.24619 1.24619 0.5 2.16667 0.5H13.8333C14.7538 0.5 15.5 1.24619 15.5 2.16667V13.8333C15.5 14.7538 14.7538 15.5 13.8333 15.5H2.16667C1.24619 15.5 0.5 14.7538 0.5 13.8333V2.16667ZM2.16667 13.8333V2.16667H13.8333V13.8333H2.16667Z" fill="white" fill-opacity="0.93"/>
<path d="M1.66667 13.8333V14.3333H2.16667H13.8333H14.3333V13.8333V2.16667V1.66667H13.8333H2.16667H1.66667V2.16667V13.8333ZM8 11.6667C7.81589 11.6667 7.66667 11.5174 7.66667 11.3333V4.66667C7.66667 4.48257 7.8159 4.33333 8 4.33333C8.1841 4.33333 8.33333 4.48257 8.33333 4.66667V11.3333C8.33333 11.5174 8.18411 11.6667 8 11.6667ZM4.66667 11.6667C4.48257 11.6667 4.33333 11.5174 4.33333 11.3333V7.16667C4.33333 6.98257 4.48257 6.83333 4.66667 6.83333C4.85077 6.83333 5 6.98256 5 7.16667V11.3333C5 11.5174 4.85077 11.6667 4.66667 11.6667ZM11.3333 11.6667C11.1492 11.6667 11 11.5174 11 11.3333V8.83333C11 8.64923 11.1492 8.5 11.3333 8.5C11.5174 8.5 11.6667 8.64923 11.6667 8.83333V11.3333C11.6667 11.5174 11.5174 11.6667 11.3333 11.6667ZM1 2.16667C1 1.52233 1.52233 1 2.16667 1H13.8333C14.4777 1 15 1.52233 15 2.16667V13.8333C15 14.4777 14.4777 15 13.8333 15H2.16667C1.52233 15 1 14.4777 1 13.8333V2.16667Z" stroke="white"/>
</svg>
