<svg width="18" height="16" viewBox="0 0 18 16" fill="none" xmlns="http://www.w3.org/2000/svg">
<path d="M8.62512 1.79259L9 2.21735L9.37488 1.79259C9.89473 1.20356 10.6538 0.833252 11.5 0.833252H16.0833C16.7277 0.833252 17.25 1.35558 17.25 1.99992V11.9999C17.25 12.6443 16.7277 13.1666 16.0833 13.1666H11.5C10.6791 13.1666 9.96569 13.6233 9.59851 14.294L9.59849 14.294C9.50661 14.4619 9.39715 14.6074 9.28276 14.7055C9.17091 14.8015 9.07802 14.8333 9 14.8333C8.92198 14.8333 8.82909 14.8015 8.71724 14.7055C8.60285 14.6074 8.49339 14.4619 8.40151 14.294L8.40149 14.294C8.03431 13.6233 7.32088 13.1666 6.5 13.1666H1.91667C1.27233 13.1666 0.75 12.6443 0.75 11.9999V1.99992C0.75 1.35559 1.27233 0.833252 1.91667 0.833252H6.5C7.34618 0.833252 8.10527 1.20356 8.62512 1.79259ZM9.33333 12.4458V13.3127L10.0837 12.8786C10.4999 12.6379 10.9831 12.4999 11.5 12.4999H16.0833H16.5833V11.9999V1.99992V1.49992H16.0833H11.5C10.3034 1.49992 9.33333 2.46997 9.33333 3.66659V12.4458ZM7.91631 12.8786L8.66667 13.3127V12.4458V3.66659C8.66667 2.46997 7.69665 1.49992 6.5 1.49992H1.91667H1.41667V1.99992V11.9999V12.4999H1.91667H6.5C7.01691 12.4999 7.50011 12.6379 7.91631 12.8786Z" fill="#95E1D3" stroke="white"/>
</svg>
