<svg width="14" height="16" viewBox="0 0 14 16" fill="none" xmlns="http://www.w3.org/2000/svg">
<path fill-rule="evenodd" clip-rule="evenodd" d="M10.3333 3.83333C10.3333 5.67428 8.84083 7.16667 6.99992 7.16667C5.15897 7.16667 3.66659 5.67428 3.66659 3.83333C3.66659 1.99238 5.15897 0.5 6.99992 0.5C8.84083 0.5 10.3333 1.99238 10.3333 3.83333ZM8.66659 3.83333C8.66659 4.75381 7.92042 5.5 6.99992 5.5C6.07942 5.5 5.33325 4.75381 5.33325 3.83333C5.33325 2.91286 6.07942 2.16667 6.99992 2.16667C7.92042 2.16667 8.66659 2.91286 8.66659 3.83333Z" fill="white" fill-opacity="0.93"/>
<path fill-rule="evenodd" clip-rule="evenodd" d="M13.6666 12.3055C13.6666 11.9444 13.5534 11.5895 13.3178 11.3158C11.7896 9.54067 9.526 8.41667 6.99992 8.41667C4.4738 8.41667 2.21021 9.54067 0.681977 11.3158C0.446385 11.5895 0.333252 11.9444 0.333252 12.3055V13.8333C0.333252 14.7538 1.07944 15.5 1.99992 15.5H11.9999C12.9204 15.5 13.6666 14.7538 13.6666 13.8333V12.3055ZM11.9999 12.3402C10.776 10.9537 8.9905 10.0833 6.99992 10.0833C5.00935 10.0833 3.22385 10.9537 1.99992 12.3402V13.8333H11.9999V12.3402Z" fill="white" fill-opacity="0.93"/>
<path d="M1.52635 12.4614C1.52161 12.4464 1.51562 12.4254 1.51314 12.4154C1.5131 12.4152 1.51306 12.415 1.51302 12.4148L1.51397 12.419C1.51582 12.4264 1.52024 12.4425 1.52284 12.4511C1.52372 12.4538 1.52494 12.4574 1.52635 12.4614ZM1.52635 12.4614C1.5271 12.4637 1.52783 12.466 1.5285 12.468C1.52926 12.47 1.53017 12.4723 1.53121 12.4749M1.52635 12.4614C1.52782 12.4656 1.5295 12.4702 1.53121 12.4749M1.53121 12.4749C1.53394 12.4823 1.53675 12.4897 1.5389 12.4951C1.54429 12.5074 1.55658 12.5322 1.56588 12.5494M1.53121 12.4749C1.53918 12.4946 1.55444 12.5279 1.56588 12.5494M1.56588 12.5494C1.56663 12.5509 1.56736 12.5522 1.56808 12.5535C1.56818 12.5537 1.56827 12.5538 1.56837 12.554L1.56588 12.5494ZM1.54025 12.1054L1.49992 12.1511V12.3402V13.8333V14.3333H1.99992H11.9999H12.4999V13.8333V12.3402V12.1511L12.3748 12.0094C11.0599 10.5198 9.13977 9.58333 6.99992 9.58333C4.92825 9.58333 3.06254 10.4611 1.75257 11.8687C1.74845 11.8713 1.74423 11.8741 1.73993 11.877M1.54025 12.1054C1.53943 12.1074 1.53865 12.1092 1.53791 12.111C1.53862 12.1093 1.53945 12.1074 1.54032 12.1054M1.54025 12.1054C1.5416 12.1023 1.54308 12.0989 1.54467 12.0954M1.54025 12.1054L1.54032 12.1054M1.54032 12.1054L1.62507 12.0094C1.66619 11.9628 1.70789 11.9167 1.75018 11.8713C1.74669 11.8732 1.74326 11.8751 1.73993 11.877M1.54032 12.1054C1.54178 12.102 1.54335 12.0984 1.54467 12.0954M1.73993 11.877C1.72516 11.8854 1.71216 11.8933 1.70325 11.8995C1.69025 11.9096 1.67159 11.9259 1.65591 11.9403M1.73993 11.877C1.7103 11.897 1.67742 11.9219 1.65591 11.9403M1.65591 11.9403C1.65061 11.9448 1.64601 11.9489 1.64231 11.9525C1.64071 11.9542 1.63902 11.9561 1.63726 11.958M1.65591 11.9403C1.64882 11.9468 1.64234 11.953 1.63726 11.958M1.63726 11.958C1.63572 11.9596 1.6343 11.961 1.63304 11.9623C1.62169 11.975 1.60221 11.999 1.59395 12.0102C1.59286 12.0117 1.59163 12.0135 1.59032 12.0154M1.63726 11.958C1.62195 11.9751 1.60128 12.0006 1.59032 12.0154M1.59032 12.0154C1.58924 12.0169 1.58825 12.0183 1.58737 12.0195C1.58513 12.0229 1.58246 12.027 1.57966 12.0315M1.59032 12.0154C1.58702 12.0203 1.5832 12.0261 1.57966 12.0315M1.57966 12.0315C1.57607 12.037 1.57279 12.0422 1.57067 12.0457C1.56901 12.0485 1.56684 12.0523 1.56463 12.0563M1.57966 12.0315C1.57447 12.0398 1.56883 12.0491 1.56463 12.0563M1.56463 12.0563C1.56309 12.0589 1.56176 12.0612 1.5607 12.0631C1.55984 12.0647 1.55885 12.0666 1.5578 12.0687M1.56463 12.0563C1.56221 12.0606 1.55973 12.0651 1.5578 12.0687M1.5578 12.0687C1.55704 12.0701 1.55637 12.0713 1.55582 12.0724C1.55388 12.0762 1.55083 12.0824 1.54841 12.0874M1.5578 12.0687C1.55474 12.0746 1.55112 12.0819 1.54841 12.0874M1.54841 12.0874C1.54738 12.0896 1.54646 12.0915 1.54579 12.093C1.54541 12.0938 1.54504 12.0946 1.54467 12.0954M1.54841 12.0874C1.54743 12.0895 1.54656 12.0913 1.54588 12.0927C1.54552 12.0935 1.54511 12.0944 1.54467 12.0954M1.50085 12.2738L1.50121 12.2686L1.50081 12.2749L1.50085 12.2738ZM1.50032 12.2859L1.50056 12.2805L1.5002 12.2905C1.50024 12.2888 1.50028 12.2872 1.50032 12.2859ZM1.50007 12.3028C1.50006 12.2987 1.50011 12.2951 1.50017 12.292L1.50007 12.3028ZM1.50067 12.3263C1.50065 12.3259 1.50063 12.3254 1.5006 12.3249L1.5014 12.3382C1.50106 12.3336 1.50084 12.3296 1.50067 12.3263ZM1.68254 12.688C1.67567 12.6817 1.66821 12.6744 1.66047 12.6664C1.67468 12.6784 1.69139 12.6918 1.70807 12.7043C1.69839 12.6987 1.68977 12.6932 1.68254 12.688ZM1.95364 12.7996C1.94424 12.798 1.93404 12.7957 1.92326 12.7929C1.93612 12.7957 1.9482 12.7981 1.95889 12.7996C1.95711 12.7997 1.95536 12.7996 1.95364 12.7996ZM2.34057 11.9381C2.34964 11.9459 2.35765 11.953 2.3639 11.9591C2.36321 11.9598 2.36251 11.9605 2.36181 11.9611C2.35467 11.9531 2.34752 11.9454 2.34057 11.9381ZM2.238 11.8621C2.25302 11.8711 2.27199 11.8843 2.29107 11.8987C2.23631 11.8668 2.14819 11.8297 2.08085 11.8117C2.13538 11.824 2.20262 11.8453 2.238 11.8621ZM2.03311 11.8029C2.0354 11.8032 2.03777 11.8035 2.04022 11.8039C1.97007 11.8042 1.8574 11.8263 1.79337 11.8486C1.8074 11.8416 1.82076 11.8355 1.8318 11.831C1.87785 11.817 1.97895 11.8023 2.03311 11.8029ZM1.5073 12.2171L1.50762 12.2153L1.50693 12.2194L1.5073 12.2171ZM9.83325 3.83333C9.83325 5.39814 8.5647 6.66667 6.99992 6.66667C5.43511 6.66667 4.16659 5.39814 4.16659 3.83333C4.16659 2.26853 5.43511 1 6.99992 1C8.5647 1 9.83325 2.26853 9.83325 3.83333ZM6.99992 6C8.19657 6 9.16658 5.02995 9.16658 3.83333C9.16658 2.63672 8.19657 1.66667 6.99992 1.66667C5.80327 1.66667 4.83325 2.63672 4.83325 3.83333C4.83325 5.02995 5.80327 6 6.99992 6ZM12.9389 11.642C13.0854 11.8122 13.1666 12.0462 13.1666 12.3055V13.8333C13.1666 14.4777 12.6443 15 11.9999 15H1.99992C1.35558 15 0.833252 14.4777 0.833252 13.8333V12.3055C0.833252 12.0461 0.914421 11.8122 1.0609 11.642C2.4982 9.97251 4.62548 8.91667 6.99992 8.91667C9.37432 8.91667 11.5016 9.97249 12.9389 11.642Z" stroke="white"/>
</svg>
