<svg width="18" height="20" viewBox="0 0 18 20" fill="none" xmlns="http://www.w3.org/2000/svg">
<path fill-rule="evenodd" clip-rule="evenodd" d="M9.00026 13.3335C10.8413 13.3335 12.3336 11.8411 12.3336 10.0002C12.3336 8.15921 10.8413 6.66683 9.00026 6.66683C7.15934 6.66683 5.66695 8.15921 5.66695 10.0002C5.66695 11.8411 7.15934 13.3335 9.00026 13.3335ZM9.00026 11.6668C9.92076 11.6668 10.6669 10.9207 10.6669 10.0002C10.6669 9.07966 9.92076 8.3335 9.00026 8.3335C8.07984 8.3335 7.33359 9.07966 7.33359 10.0002C7.33359 10.9207 8.07984 11.6668 9.00026 11.6668Z" fill="white" fill-opacity="0.93"/>
<path fill-rule="evenodd" clip-rule="evenodd" d="M11.5986 1.55424L11.9337 4.01188C12.2063 4.1457 12.4685 4.29758 12.7187 4.46598L15.0155 3.52702C15.4012 3.36933 15.8442 3.52083 16.0526 3.88172L17.8252 6.95194C18.0335 7.31284 17.9432 7.77216 17.6138 8.02738L15.6518 9.54733C15.6618 9.697 15.6669 9.848 15.6669 10.0002C15.6669 10.1523 15.6618 10.3033 15.6518 10.453L17.6138 11.9729C17.9432 12.2282 18.0335 12.6875 17.8252 13.0484L16.0526 16.1186C15.8442 16.4795 15.4012 16.631 15.0155 16.4733L12.7187 15.5343C12.4685 15.7027 12.2063 15.8547 11.9337 15.9884L11.5986 18.4461C11.5422 18.859 11.1896 19.1668 10.7728 19.1668H7.22769C6.81096 19.1668 6.45831 18.859 6.402 18.4461L6.06686 15.9884C5.79421 15.8547 5.53204 15.7027 5.2819 15.5343L2.98504 16.4733C2.59931 16.631 2.15638 16.4795 1.94801 16.1186L0.17543 13.0484C-0.0329365 12.6875 0.0573219 12.2282 0.386755 11.9729L2.34876 10.453C2.33871 10.3033 2.33362 10.1523 2.33362 10.0002C2.33362 9.848 2.33871 9.697 2.34876 9.54733L0.386755 8.02738C0.0573219 7.77216 -0.0329365 7.31284 0.175422 6.95194L1.94801 3.88172C2.15637 3.52083 2.5993 3.36933 2.98504 3.52702L5.2819 4.46598C5.53204 4.29758 5.79421 4.1457 6.06686 4.01188L6.402 1.55424C6.45831 1.14133 6.81096 0.833496 7.22769 0.833496H10.7728C11.1896 0.833496 11.5422 1.14133 11.5986 1.55424ZM10.4022 5.11685L11.1994 5.50806C11.4036 5.60829 11.6002 5.72215 11.7879 5.84854L12.5259 6.34535L14.9729 5.34501L16.0181 7.15532L13.9295 8.77333L13.9889 9.65891C13.9964 9.77141 14.0002 9.88524 14.0002 10.0002C14.0002 10.1151 13.9964 10.2289 13.9889 10.3414L13.9295 11.227L16.0181 12.845L14.9729 14.6553L12.5259 13.655L11.7879 14.1518C11.6002 14.2782 11.4036 14.392 11.1994 14.4922L10.4022 14.8835L10.0455 17.5002H7.95508L7.59825 14.8835L6.80117 14.4922C6.59696 14.392 6.40039 14.2782 6.21266 14.1518L5.4747 13.655L3.02769 14.6553L1.98251 12.845L4.07108 11.227L4.01168 10.3414C4.00414 10.2289 4.00028 10.1151 4.00028 10.0002C4.00028 9.88524 4.00414 9.77141 4.01168 9.65891L4.07108 8.77333L1.98251 7.15532L3.02768 5.34501L5.47469 6.34535L6.21266 5.84854C6.40039 5.72215 6.59696 5.6083 6.80117 5.50807L7.59825 5.11686L7.95508 2.50016H10.0455L10.4022 5.11685Z" fill="white" fill-opacity="0.93"/>
<path d="M11.4742 4.34337L11.4382 4.07943L11.1032 1.62183C11.1032 1.62181 11.1032 1.6218 11.1032 1.62178C11.0806 1.45662 10.9395 1.3335 10.7728 1.3335H7.22769C7.061 1.3335 6.91994 1.45663 6.89741 1.62179L6.56228 4.07944L6.52629 4.34337L6.28716 4.46073C6.03504 4.58447 5.79254 4.72495 5.56113 4.88075L5.33974 5.02979L5.0927 4.9288L2.79584 3.98984C2.64154 3.92676 2.46437 3.98737 2.38103 4.13172L2.38103 4.13172L0.608438 7.20193C0.608437 7.20193 0.608436 7.20193 0.608434 7.20194C0.525092 7.3463 0.561199 7.53003 0.692966 7.63211C0.692967 7.63211 0.692969 7.63211 0.692971 7.63212L2.65497 9.15206L2.86546 9.31513L2.84763 9.5808C2.83834 9.71932 2.83362 9.85915 2.83362 10.0002C2.83362 10.1412 2.83834 10.281 2.84763 10.4195L2.86546 10.6852L2.65496 10.8483L0.692996 12.3682C0.692984 12.3682 0.692973 12.3682 0.692961 12.3682C0.561185 12.4703 0.525098 12.654 0.608447 12.7984L2.38102 15.8686L2.38103 15.8686C2.46438 16.013 2.64154 16.0736 2.79583 16.0105C2.79584 16.0105 2.79585 16.0105 2.79586 16.0105L5.09269 15.0715L5.33975 14.9705L5.56115 15.1196C5.79258 15.2754 6.03504 15.4159 6.28707 15.5395L6.52628 15.6569L6.56228 15.9209L6.89741 18.3785C6.91994 18.5437 7.06101 18.6668 7.22769 18.6668H10.7728C10.9395 18.6668 11.0806 18.5437 11.1032 18.3785C11.1032 18.3785 11.1032 18.3785 11.1032 18.3785L11.4382 15.9209L11.4742 15.6569L11.7135 15.5395C11.9655 15.4159 12.208 15.2754 12.4394 15.1196L12.6608 14.9705L12.9079 15.0715L15.2047 16.0105C15.2047 16.0105 15.2047 16.0105 15.2047 16.0105C15.359 16.0735 15.5362 16.013 15.6196 15.8686L11.4742 4.34337ZM11.4742 4.34337L11.7134 4.46074C11.9655 4.58447 12.208 4.72495 12.4395 4.88076L12.6608 5.02979L12.9079 4.9288L15.2047 3.98984C15.359 3.92677 15.5362 3.98735 15.6196 4.13177L17.3921 7.20191C17.4755 7.3463 17.4394 7.53004 17.3076 7.63212L15.3456 9.15206L15.1352 9.31507L15.1529 9.58066C15.1622 9.71925 15.1669 9.85914 15.1669 10.0002C15.1669 10.1412 15.1622 10.2811 15.1529 10.4197L15.1352 10.6853L15.3456 10.8483L17.3076 12.3681C17.3076 12.3682 17.3076 12.3682 17.3076 12.3682C17.4394 12.4703 17.4755 12.654 17.3922 12.7984C17.3921 12.7984 17.3921 12.7984 17.3921 12.7984L15.6196 15.8685L11.4742 4.34337ZM11.4197 5.05923L11.4197 5.0592L10.8617 4.78536L10.5409 2.43262L10.482 2.00016H10.0455H7.95508H7.51864L7.45967 2.4326L7.13882 4.78537L6.58088 5.05921C6.35613 5.16951 6.13989 5.29478 5.93344 5.43377C5.93343 5.43377 5.93343 5.43377 5.93343 5.43377L5.41685 5.78154L3.21688 4.88219L2.81289 4.71704L2.59467 5.09501L1.54949 6.90532L1.33127 7.2833L1.67629 7.55059L3.55438 9.00553L3.5128 9.62545L3.5128 9.62547C3.50451 9.74907 3.50028 9.87406 3.50028 10.0002C3.50028 10.1263 3.50451 10.2513 3.5128 10.3749L3.5128 10.3749L3.55438 10.9948L1.6763 12.4497L1.33127 12.717L1.54949 13.095L2.59467 14.9053L2.8129 15.2833L3.21689 15.1181L5.41685 14.2188L5.93343 14.5666L5.93351 14.5666C6.13994 14.7056 6.35616 14.8308 6.58083 14.9411L6.58085 14.9411L7.13882 15.215L7.45967 17.5677L7.51864 18.0002H7.95508H10.0455H10.482L10.5409 17.5677L10.8617 15.215L11.4197 14.9411L11.4198 14.9411C11.6444 14.8308 11.8606 14.7056 12.067 14.5667L12.0671 14.5666L12.5838 14.2188L14.7837 15.1181L15.1877 15.2833L15.4059 14.9053L16.4511 13.095L16.6693 12.717L16.3243 12.4497L14.4462 10.9948L14.4878 10.3749L14.4878 10.3747C14.496 10.2511 14.5002 10.1262 14.5002 10.0002C14.5002 9.87413 14.496 9.74921 14.4878 9.62565L14.4878 9.62544L14.4462 9.00553L16.3243 7.55059L16.6693 7.2833L16.4511 6.90532L15.4059 5.09502L15.1877 4.71704L14.7837 4.88219L12.5837 5.78155L12.0671 5.43377L12.0671 5.43376C11.8607 5.29478 11.6444 5.16952 11.4197 5.05923ZM11.8336 10.0002C11.8336 11.5649 10.5651 12.8335 9.00026 12.8335C7.43548 12.8335 6.16695 11.5649 6.16695 10.0002C6.16695 8.43535 7.43548 7.16683 9.00026 7.16683C10.5651 7.16683 11.8336 8.43535 11.8336 10.0002ZM9.00026 12.1668C10.1969 12.1668 11.1669 11.1968 11.1669 10.0002C11.1669 8.80352 10.1969 7.8335 9.00026 7.8335C7.80372 7.8335 6.83359 8.8035 6.83359 10.0002C6.83359 11.1968 7.80372 12.1668 9.00026 12.1668Z" stroke="white"/>
</svg>
