<svg width="18" height="17" viewBox="0 0 18 17" fill="none" xmlns="http://www.w3.org/2000/svg">
<path d="M2.93583 12.2342L2.93584 12.2342C3.01446 11.9197 2.95869 11.5867 2.78188 11.315C2.17487 10.3822 1.83341 9.30803 1.83341 8.16663C1.83341 4.78515 4.91924 1.83329 9.00008 1.83329C13.0809 1.83329 16.1667 4.78515 16.1667 8.16663C16.1667 11.5481 13.0809 14.5 9.00008 14.5C8.07368 14.5 7.19184 14.3447 6.38405 14.0642L2.93583 12.2342ZM2.93583 12.2342L2.47238 14.0881L2.27027 14.8966M2.93583 12.2342L2.27027 14.8966M2.27027 14.8966L3.07872 14.6944M2.27027 14.8966L3.07872 14.6944M3.07872 14.6944L5.7183 14.0345M3.07872 14.6944L5.7183 14.0345M5.7183 14.0345C5.93836 13.9795 6.16969 13.9898 6.38399 14.0642L5.7183 14.0345ZM2.28908 12.0726L2.34192 11.8612L2.2231 11.6786C1.54988 10.6439 1.16675 9.44465 1.16675 8.16663C1.16675 4.34888 4.62299 1.16663 9.00008 1.16663C13.3771 1.16663 16.8334 4.34889 16.8334 8.16663C16.8334 11.9844 13.3771 15.1666 9.00008 15.1666C7.99892 15.1666 7.04324 14.9989 6.16527 14.694L6.02454 14.6452L5.88001 14.6813L1.89298 15.6781C1.64887 15.7391 1.42772 15.518 1.48875 15.2738C1.48875 15.2738 1.48875 15.2738 1.48875 15.2738L2.28908 12.0726Z" stroke="white"/>
</svg>
