<svg width="103" height="25" viewBox="0 0 103 25" fill="none" xmlns="http://www.w3.org/2000/svg">
<path d="M7.928 24.496C6.54333 24.496 5.262 24.186 4.084 23.566C2.92667 22.9253 1.99667 22.016 1.294 20.838C0.612 19.6393 0.271 18.203 0.271 16.529C0.271 15.4543 0.467333 14.4107 0.86 13.398C1.25267 12.3853 1.80033 11.476 2.503 10.67C3.22633 9.84333 4.084 9.19233 5.076 8.717C6.068 8.24167 7.16333 8.004 8.362 8.004C9.51933 8.004 10.5217 8.17967 11.369 8.531C12.237 8.88233 12.9087 9.34733 13.384 9.926C13.8593 10.5047 14.097 11.135 14.097 11.817C14.097 12.2717 13.973 12.6643 13.725 12.995C13.477 13.305 13.1153 13.46 12.64 13.46C12.1233 13.4807 11.7513 13.3257 11.524 12.995C11.3173 12.6437 11.214 12.3337 11.214 12.065C11.214 11.8583 11.245 11.6517 11.307 11.445C11.369 11.2177 11.493 11.011 11.679 10.825C11.5137 10.329 11.2243 9.96733 10.811 9.74C10.3977 9.492 9.96367 9.337 9.509 9.275C9.075 9.19233 8.71333 9.151 8.424 9.151C7.01867 9.151 5.83033 9.71933 4.859 10.856C3.90833 11.972 3.433 13.6047 3.433 15.754C3.433 17.1387 3.65 18.3683 4.084 19.443C4.53867 20.5177 5.169 21.365 5.975 21.985C6.781 22.5843 7.711 22.884 8.765 22.884C9.73633 22.884 10.6663 22.6257 11.555 22.109C12.4437 21.5923 13.136 20.962 13.632 20.218L14.438 20.838C13.9007 21.706 13.2497 22.4087 12.485 22.946C11.741 23.4833 10.966 23.876 10.16 24.124C9.37467 24.372 8.63067 24.496 7.928 24.496ZM24.3997 24.496C22.953 24.496 21.6407 24.1653 20.4627 23.504C19.2847 22.822 18.3443 21.892 17.6417 20.714C16.9597 19.5153 16.6187 18.1513 16.6187 16.622C16.6187 14.9893 16.9597 13.522 17.6417 12.22C18.3237 10.918 19.2537 9.895 20.4317 9.151C21.6097 8.38633 22.9323 8.004 24.3997 8.004C25.8463 8.004 27.1587 8.35533 28.3367 9.058C29.5147 9.74 30.455 10.67 31.1577 11.848C31.8603 13.026 32.2117 14.3693 32.2117 15.878C32.2117 17.4693 31.8603 18.9263 31.1577 20.249C30.4757 21.551 29.5457 22.5843 28.3677 23.349C27.1897 24.1137 25.867 24.496 24.3997 24.496ZM24.6477 23.256C25.743 23.256 26.611 22.946 27.2517 22.326C27.8923 21.706 28.347 20.9 28.6157 19.908C28.905 18.916 29.0497 17.8723 29.0497 16.777C29.0497 15.847 28.9567 14.9377 28.7707 14.049C28.6053 13.1397 28.3367 12.3233 27.9647 11.6C27.5927 10.856 27.107 10.267 26.5077 9.833C25.929 9.399 25.2263 9.182 24.3997 9.182C23.325 9.182 22.4467 9.492 21.7647 10.112C21.0827 10.732 20.5763 11.538 20.2457 12.53C19.9357 13.522 19.7807 14.5863 19.7807 15.723C19.7807 17.0043 19.9563 18.2237 20.3077 19.381C20.659 20.5177 21.1963 21.4477 21.9197 22.171C22.643 22.8943 23.5523 23.256 24.6477 23.256ZM42.5334 24.496C41.0868 24.496 39.7744 24.1653 38.5964 23.504C37.4184 22.822 36.4781 21.892 35.7754 20.714C35.0934 19.5153 34.7524 18.1513 34.7524 16.622C34.7524 14.9893 35.0934 13.522 35.7754 12.22C36.4574 10.918 37.3874 9.895 38.5654 9.151C39.7434 8.38633 41.0661 8.004 42.5334 8.004C43.9801 8.004 45.2924 8.35533 46.4704 9.058C47.6484 9.74 48.5888 10.67 49.2914 11.848C49.9941 13.026 50.3454 14.3693 50.3454 15.878C50.3454 17.4693 49.9941 18.9263 49.2914 20.249C48.6094 21.551 47.6794 22.5843 46.5014 23.349C45.3234 24.1137 44.0008 24.496 42.5334 24.496ZM42.7814 23.256C43.8768 23.256 44.7448 22.946 45.3854 22.326C46.0261 21.706 46.4808 20.9 46.7494 19.908C47.0388 18.916 47.1834 17.8723 47.1834 16.777C47.1834 15.847 47.0904 14.9377 46.9044 14.049C46.7391 13.1397 46.4704 12.3233 46.0984 11.6C45.7264 10.856 45.2408 10.267 44.6414 9.833C44.0628 9.399 43.3601 9.182 42.5334 9.182C41.4588 9.182 40.5804 9.492 39.8984 10.112C39.2164 10.732 38.7101 11.538 38.3794 12.53C38.0694 13.522 37.9144 14.5863 37.9144 15.723C37.9144 17.0043 38.0901 18.2237 38.4414 19.381C38.7928 20.5177 39.3301 21.4477 40.0534 22.171C40.7768 22.8943 41.6861 23.256 42.7814 23.256ZM52.7002 24V23.07C53.3409 23.07 53.7749 22.915 54.0022 22.605C54.2502 22.2743 54.3949 21.83 54.4362 21.272C54.4776 20.6933 54.4982 20.032 54.4982 19.288L54.5292 4.625C54.5292 4.29433 54.5292 3.98433 54.5292 3.695C54.5499 3.385 54.5809 3.02333 54.6222 2.61C54.2502 2.63067 53.8782 2.65133 53.5062 2.672C53.1549 2.69267 52.7932 2.71333 52.4212 2.734V1.432C53.3306 1.432 54.0332 1.39067 54.5292 1.308C55.0252 1.22533 55.3972 1.122 55.6452 0.997999C55.9139 0.873999 56.1206 0.739666 56.2652 0.594998H57.1642V15.258H58.4042L62.1862 11.29C62.5376 10.9387 62.8579 10.6287 63.1472 10.36C63.4366 10.0707 63.7259 9.833 64.0152 9.647L61.9072 9.74V8.5H67.5492V9.43C66.8466 9.492 66.1852 9.71933 65.5652 10.112C64.9659 10.484 64.4079 10.9077 63.8912 11.383C63.3952 11.8583 62.9612 12.2923 62.5892 12.685L60.1712 15.227C60.5846 15.413 60.9359 15.6507 61.2252 15.94C61.5146 16.2293 61.8039 16.5497 62.0932 16.901L64.2942 19.722C64.3976 19.846 64.5732 20.0837 64.8212 20.435C65.0899 20.7863 65.3999 21.1687 65.7512 21.582C66.1232 21.9953 66.5056 22.3467 66.8982 22.636C67.3116 22.9253 67.6939 23.07 68.0452 23.07V24H65.2242C64.6456 24 64.0979 23.7003 63.5812 23.101C63.0646 22.5017 62.5169 21.83 61.9382 21.086C61.4009 20.342 60.9152 19.6703 60.4812 19.071C60.0679 18.451 59.6856 17.9137 59.3342 17.459C59.0036 17.0043 58.7039 16.653 58.4352 16.405L57.1642 16.467V20.714C57.1642 21.1273 57.1539 21.4993 57.1332 21.83C57.1332 22.14 57.1022 22.4707 57.0402 22.822C57.3709 22.8013 57.7016 22.791 58.0322 22.791C58.3629 22.7703 58.6936 22.7497 59.0242 22.729V24H52.7002ZM76.9197 24.496C75.4937 24.496 74.202 24.1653 73.0447 23.504C71.908 22.822 71.009 21.8713 70.3477 20.652C69.6864 19.412 69.3557 17.955 69.3557 16.281C69.3557 14.8343 69.676 13.4807 70.3167 12.22C70.978 10.9593 71.8977 9.94667 73.0757 9.182C74.2537 8.39667 75.6177 8.004 77.1677 8.004C78.0357 8.004 78.8417 8.14867 79.5857 8.438C80.3504 8.70667 81.022 9.13033 81.6007 9.709C82.1794 10.267 82.634 10.98 82.9647 11.848C83.2954 12.6953 83.4607 13.6977 83.4607 14.855L72.5487 15.041C72.5487 16.6117 72.714 17.9963 73.0447 19.195C73.396 20.373 73.954 21.2927 74.7187 21.954C75.4834 22.5947 76.465 22.915 77.6637 22.915C78.3044 22.915 78.9554 22.8013 79.6167 22.574C80.2987 22.3467 80.929 22.0367 81.5077 21.644C82.0864 21.2513 82.5514 20.8173 82.9027 20.342L83.6467 20.962C83.0887 21.83 82.417 22.5223 81.6317 23.039C80.8464 23.5557 80.0404 23.9277 79.2137 24.155C78.387 24.3823 77.6224 24.496 76.9197 24.496ZM72.6417 13.739H80.5467C80.5467 12.995 80.433 12.282 80.2057 11.6C79.999 10.8973 79.6477 10.329 79.1517 9.895C78.6557 9.44033 78.0047 9.213 77.1987 9.213C76 9.213 74.9977 9.57467 74.1917 10.298C73.4064 11.0007 72.8897 12.1477 72.6417 13.739ZM92.7021 24.496C91.4414 24.496 90.3048 24.186 89.2921 23.566C88.2794 22.9253 87.4734 22.016 86.8741 20.838C86.2954 19.66 86.0061 18.2753 86.0061 16.684C86.0061 14.9893 86.3471 13.491 87.0291 12.189C87.7111 10.887 88.6514 9.864 89.8501 9.12C91.0694 8.376 92.4438 8.004 93.9731 8.004C94.6551 8.004 95.3268 8.097 95.9881 8.283C96.6701 8.44833 97.2074 8.64467 97.6001 8.872V4.625C97.6001 4.29433 97.6001 3.98433 97.6001 3.695C97.6208 3.385 97.6518 3.02333 97.6931 2.61C97.3211 2.63067 96.9491 2.65133 96.5771 2.672C96.2258 2.69267 95.8641 2.71333 95.4921 2.734V1.432C96.4014 1.432 97.1041 1.39067 97.6001 1.308C98.0961 1.22533 98.4681 1.122 98.7161 0.997999C98.9848 0.873999 99.1914 0.739666 99.3361 0.594998H100.235V20.714C100.235 21.0447 100.225 21.3753 100.204 21.706C100.183 22.0367 100.152 22.4087 100.111 22.822C100.483 22.8013 100.845 22.7807 101.196 22.76C101.568 22.7393 101.94 22.7187 102.312 22.698V24H97.8791C97.8171 23.69 97.7654 23.411 97.7241 23.163C97.7034 22.8943 97.6828 22.636 97.6621 22.388C97.0834 23.0287 96.3704 23.5453 95.5231 23.938C94.6758 24.31 93.7354 24.496 92.7021 24.496ZM93.8181 22.977C94.5001 22.977 95.1821 22.7807 95.8641 22.388C96.5668 21.9953 97.1454 21.5097 97.6001 20.931C97.5794 20.683 97.5691 20.4247 97.5691 20.156C97.5691 19.8667 97.5691 19.5567 97.5691 19.226L97.6001 10.298C97.1041 9.926 96.5564 9.65733 95.9571 9.492C95.3784 9.306 94.7791 9.213 94.1591 9.213C93.1258 9.213 92.2268 9.51267 91.4621 10.112C90.6974 10.7113 90.1188 11.5483 89.7261 12.623C89.3334 13.6977 89.1578 14.9583 89.1991 16.405C89.2404 17.6657 89.4368 18.792 89.7881 19.784C90.1601 20.776 90.6768 21.5613 91.3381 22.14C92.0201 22.698 92.8468 22.977 93.8181 22.977Z" fill="black"/>
</svg>
