<svg width="126" height="20" viewBox="0 0 126 20" fill="none" xmlns="http://www.w3.org/2000/svg">
<path d="M1.41561e-07 19V1.25H6.3C8.21667 1.25 9.81667 1.65 11.1 2.45C12.3833 3.23333 13.3417 4.3 13.975 5.65C14.625 6.98333 14.95 8.46667 14.95 10.1C14.95 11.9 14.5917 13.4667 13.875 14.8C13.175 16.1333 12.175 17.1667 10.875 17.9C9.575 18.6333 8.05 19 6.3 19H1.41561e-07ZM12.1 10.1C12.1 8.85 11.8667 7.75 11.4 6.8C10.95 5.83333 10.2917 5.08333 9.425 4.55C8.575 4 7.53333 3.725 6.3 3.725H2.8V16.525H6.3C7.55 16.525 8.6 16.2417 9.45 15.675C10.3167 15.1083 10.975 14.3417 11.425 13.375C11.875 12.4083 12.1 11.3167 12.1 10.1ZM16.449 15.175C16.449 14.3417 16.6824 13.6167 17.149 13C17.6324 12.3667 18.2907 11.8833 19.124 11.55C19.9574 11.2 20.924 11.025 22.024 11.025C22.6074 11.025 23.199 11.0667 23.799 11.15C24.4157 11.2333 24.9574 11.3667 25.424 11.55V10.725C25.424 9.80833 25.149 9.09167 24.599 8.575C24.049 8.05833 23.2574 7.8 22.224 7.8C21.4907 7.8 20.799 7.93333 20.149 8.2C19.499 8.45 18.8074 8.80833 18.074 9.275L17.149 7.425C18.0157 6.84167 18.8824 6.40833 19.749 6.125C20.6324 5.84167 21.5574 5.7 22.524 5.7C24.274 5.7 25.649 6.16667 26.649 7.1C27.6657 8.01667 28.174 9.325 28.174 11.025V15.9C28.174 16.2167 28.224 16.4417 28.324 16.575C28.4407 16.7083 28.6324 16.7833 28.899 16.8V19C28.649 19.05 28.424 19.0833 28.224 19.1C28.024 19.1167 27.8574 19.125 27.724 19.125C27.1407 19.125 26.699 18.9833 26.399 18.7C26.099 18.4167 25.924 18.0833 25.874 17.7L25.799 16.95C25.2324 17.6833 24.5074 18.25 23.624 18.65C22.7407 19.05 21.849 19.25 20.949 19.25C20.0824 19.25 19.3074 19.075 18.624 18.725C17.9407 18.3583 17.4074 17.8667 17.024 17.25C16.6407 16.6333 16.449 15.9417 16.449 15.175ZM24.774 15.975C24.974 15.7583 25.1324 15.5417 25.249 15.325C25.3657 15.1083 25.424 14.9167 25.424 14.75V13.25C24.9574 13.0667 24.4657 12.9333 23.949 12.85C23.4324 12.75 22.924 12.7 22.424 12.7C21.424 12.7 20.6074 12.9 19.974 13.3C19.3574 13.7 19.049 14.25 19.049 14.95C19.049 15.3333 19.149 15.7 19.349 16.05C19.5657 16.4 19.8657 16.6833 20.249 16.9C20.649 17.1167 21.1407 17.225 21.724 17.225C22.324 17.225 22.899 17.1083 23.449 16.875C23.999 16.6417 24.4407 16.3417 24.774 15.975ZM36.1604 19.25C35.0604 19.25 34.0187 19.075 33.0354 18.725C32.052 18.3583 31.2104 17.8167 30.5104 17.1L31.5354 15.25C32.2854 15.9167 33.0354 16.4 33.7854 16.7C34.552 17 35.3104 17.15 36.0604 17.15C36.827 17.15 37.452 17.0083 37.9354 16.725C38.4187 16.425 38.6604 15.9917 38.6604 15.425C38.6604 15.0083 38.5354 14.7 38.2854 14.5C38.0354 14.3 37.6687 14.125 37.1854 13.975C36.7187 13.825 36.152 13.6583 35.4854 13.475C34.552 13.1917 33.7687 12.9 33.1354 12.6C32.502 12.2833 32.027 11.9 31.7104 11.45C31.3937 11 31.2354 10.425 31.2354 9.725C31.2354 8.875 31.452 8.15 31.8854 7.55C32.3187 6.95 32.9187 6.49167 33.6854 6.175C34.4687 5.85833 35.3687 5.7 36.3854 5.7C37.3354 5.7 38.2104 5.85 39.0104 6.15C39.827 6.43333 40.5437 6.88333 41.1604 7.5L39.9854 9.325C39.402 8.79167 38.802 8.4 38.1854 8.15C37.5854 7.9 36.9354 7.775 36.2354 7.775C35.8354 7.775 35.452 7.825 35.0854 7.925C34.7187 8.00833 34.4104 8.175 34.1604 8.425C33.927 8.65833 33.8104 8.99167 33.8104 9.425C33.8104 9.775 33.9104 10.0583 34.1104 10.275C34.3104 10.4917 34.6104 10.675 35.0104 10.825C35.4104 10.975 35.902 11.1417 36.4854 11.325C37.502 11.625 38.3687 11.925 39.0854 12.225C39.802 12.5083 40.352 12.8833 40.7354 13.35C41.1354 13.8 41.3354 14.425 41.3354 15.225C41.3354 16.4917 40.8604 17.4833 39.9104 18.2C38.977 18.9 37.727 19.25 36.1604 19.25ZM55.5156 19H52.7656V11.675C52.7656 10.4917 52.549 9.60833 52.1156 9.025C51.6823 8.44167 51.074 8.15 50.2906 8.15C49.8073 8.15 49.3073 8.28333 48.7906 8.55C48.274 8.81667 47.8156 9.18333 47.4156 9.65C47.0156 10.1 46.724 10.625 46.5406 11.225V19H43.7906V0.75H46.5406V8.55C47.0406 7.66667 47.724 6.975 48.5906 6.475C49.4573 5.95833 50.3906 5.7 51.3906 5.7C52.2073 5.7 52.8823 5.84167 53.4156 6.125C53.949 6.40833 54.3656 6.8 54.6656 7.3C54.9823 7.78333 55.199 8.35 55.3156 9C55.449 9.63333 55.5156 10.3083 55.5156 11.025V19ZM65.7576 19.25C64.7576 19.25 63.8493 19.0167 63.0326 18.55C62.2326 18.0667 61.5993 17.425 61.1326 16.625V19H58.7076V0.75H61.4576V8.4C61.9743 7.56667 62.616 6.90833 63.3826 6.425C64.166 5.94167 65.0826 5.7 66.1326 5.7C66.9993 5.7 67.791 5.88333 68.5076 6.25C69.2243 6.61667 69.8326 7.11667 70.3326 7.75C70.8493 8.38333 71.241 9.10833 71.5076 9.925C71.791 10.7417 71.9326 11.6083 71.9326 12.525C71.9326 13.4417 71.7743 14.3083 71.4576 15.125C71.1576 15.9417 70.7243 16.6583 70.1576 17.275C69.591 17.8917 68.9326 18.375 68.1826 18.725C67.4493 19.075 66.641 19.25 65.7576 19.25ZM65.0326 16.9C65.6326 16.9 66.1826 16.7833 66.6826 16.55C67.1826 16.3 67.616 15.975 67.9826 15.575C68.3493 15.175 68.6243 14.7083 68.8076 14.175C69.0076 13.6417 69.1076 13.0917 69.1076 12.525C69.1076 11.7417 68.941 11.0083 68.6076 10.325C68.291 9.64167 67.841 9.09167 67.2576 8.675C66.6743 8.25833 65.9993 8.05 65.2326 8.05C64.6826 8.05 64.166 8.18333 63.6826 8.45C63.1993 8.7 62.766 9.04167 62.3826 9.475C62.016 9.89167 61.7076 10.3583 61.4576 10.875V14.325C61.5576 14.7083 61.7326 15.0583 61.9826 15.375C62.2326 15.675 62.5243 15.9417 62.8576 16.175C63.191 16.3917 63.5493 16.5667 63.9326 16.7C64.316 16.8333 64.6826 16.9 65.0326 16.9ZM80.2809 19.25C79.2475 19.25 78.3225 19.075 77.5059 18.725C76.6892 18.3583 75.9809 17.8583 75.3809 17.225C74.7975 16.5917 74.3475 15.875 74.0309 15.075C73.7142 14.2583 73.5559 13.3917 73.5559 12.475C73.5559 11.5583 73.7142 10.6917 74.0309 9.875C74.3475 9.05833 74.7975 8.34167 75.3809 7.725C75.9809 7.09167 76.6892 6.6 77.5059 6.25C78.3392 5.88333 79.2642 5.7 80.2809 5.7C81.2975 5.7 82.2142 5.88333 83.0309 6.25C83.8642 6.6 84.5725 7.09167 85.1559 7.725C85.7559 8.34167 86.2142 9.05833 86.5309 9.875C86.8475 10.6917 87.0059 11.5583 87.0059 12.475C87.0059 13.3917 86.8475 14.2583 86.5309 15.075C86.2142 15.875 85.7559 16.5917 85.1559 17.225C84.5725 17.8583 83.8642 18.3583 83.0309 18.725C82.2142 19.075 81.2975 19.25 80.2809 19.25ZM76.3809 12.5C76.3809 13.3333 76.5559 14.0833 76.9059 14.75C77.2559 15.4167 77.7225 15.9417 78.3059 16.325C78.8892 16.7083 79.5475 16.9 80.2809 16.9C80.9975 16.9 81.6475 16.7083 82.2309 16.325C82.8309 15.925 83.3059 15.3917 83.6559 14.725C84.0059 14.0417 84.1809 13.2917 84.1809 12.475C84.1809 11.6417 84.0059 10.8917 83.6559 10.225C83.3059 9.55833 82.8309 9.03333 82.2309 8.65C81.6475 8.25 80.9975 8.05 80.2809 8.05C79.5475 8.05 78.8892 8.25 78.3059 8.65C77.7225 9.05 77.2559 9.58333 76.9059 10.25C76.5559 10.9 76.3809 11.65 76.3809 12.5ZM88.4949 15.175C88.4949 14.3417 88.7283 13.6167 89.1949 13C89.6783 12.3667 90.3366 11.8833 91.1699 11.55C92.0033 11.2 92.9699 11.025 94.0699 11.025C94.6533 11.025 95.2449 11.0667 95.8449 11.15C96.4616 11.2333 97.0033 11.3667 97.4699 11.55V10.725C97.4699 9.80833 97.1949 9.09167 96.6449 8.575C96.0949 8.05833 95.3033 7.8 94.2699 7.8C93.5366 7.8 92.8449 7.93333 92.1949 8.2C91.5449 8.45 90.8533 8.80833 90.1199 9.275L89.1949 7.425C90.0616 6.84167 90.9283 6.40833 91.7949 6.125C92.6783 5.84167 93.6033 5.7 94.5699 5.7C96.3199 5.7 97.6949 6.16667 98.6949 7.1C99.7116 8.01667 100.22 9.325 100.22 11.025V15.9C100.22 16.2167 100.27 16.4417 100.37 16.575C100.487 16.7083 100.678 16.7833 100.945 16.8V19C100.695 19.05 100.47 19.0833 100.27 19.1C100.07 19.1167 99.9033 19.125 99.7699 19.125C99.1866 19.125 98.7449 18.9833 98.4449 18.7C98.1449 18.4167 97.9699 18.0833 97.9199 17.7L97.8449 16.95C97.2783 17.6833 96.5533 18.25 95.6699 18.65C94.7866 19.05 93.8949 19.25 92.9949 19.25C92.1283 19.25 91.3533 19.075 90.6699 18.725C89.9866 18.3583 89.4533 17.8667 89.0699 17.25C88.6866 16.6333 88.4949 15.9417 88.4949 15.175ZM96.8199 15.975C97.0199 15.7583 97.1783 15.5417 97.2949 15.325C97.4116 15.1083 97.4699 14.9167 97.4699 14.75V13.25C97.0033 13.0667 96.5116 12.9333 95.9949 12.85C95.4783 12.75 94.9699 12.7 94.4699 12.7C93.4699 12.7 92.6533 12.9 92.0199 13.3C91.4033 13.7 91.0949 14.25 91.0949 14.95C91.0949 15.3333 91.1949 15.7 91.3949 16.05C91.6116 16.4 91.9116 16.6833 92.2949 16.9C92.6949 17.1167 93.1866 17.225 93.7699 17.225C94.3699 17.225 94.9449 17.1083 95.4949 16.875C96.0449 16.6417 96.4866 16.3417 96.8199 15.975ZM110.906 8.3C109.84 8.31667 108.89 8.55833 108.056 9.025C107.24 9.49167 106.656 10.15 106.306 11V19H103.556V5.925H106.106V8.85C106.556 7.95 107.148 7.23333 107.881 6.7C108.615 6.15 109.39 5.85 110.206 5.8C110.373 5.8 110.506 5.8 110.606 5.8C110.723 5.8 110.823 5.80833 110.906 5.825V8.3ZM111.887 12.475C111.887 11.225 112.137 10.0917 112.637 9.075C113.153 8.04167 113.853 7.225 114.737 6.625C115.62 6.00833 116.637 5.7 117.787 5.7C118.787 5.7 119.687 5.95833 120.487 6.475C121.303 6.99167 121.937 7.63333 122.387 8.4V0.75H125.137V15.9C125.137 16.2167 125.195 16.4417 125.312 16.575C125.428 16.7083 125.62 16.7833 125.887 16.8V19C125.37 19.0833 124.97 19.125 124.687 19.125C124.17 19.125 123.728 18.975 123.362 18.675C123.012 18.375 122.828 18.0167 122.812 17.6L122.787 16.625C122.287 17.4583 121.612 18.1083 120.762 18.575C119.912 19.025 119.028 19.25 118.112 19.25C117.212 19.25 116.378 19.075 115.612 18.725C114.862 18.375 114.203 17.8833 113.637 17.25C113.087 16.6167 112.653 15.8917 112.337 15.075C112.037 14.2583 111.887 13.3917 111.887 12.475ZM122.387 14.3V10.875C122.203 10.3417 121.903 9.86667 121.487 9.45C121.087 9.01667 120.628 8.675 120.112 8.425C119.612 8.175 119.112 8.05 118.612 8.05C118.028 8.05 117.495 8.175 117.012 8.425C116.545 8.675 116.137 9.00833 115.787 9.425C115.453 9.84167 115.195 10.3167 115.012 10.85C114.828 11.3833 114.737 11.9417 114.737 12.525C114.737 13.125 114.837 13.6917 115.037 14.225C115.237 14.7417 115.52 15.2083 115.887 15.625C116.27 16.025 116.703 16.3417 117.187 16.575C117.687 16.7917 118.228 16.9 118.812 16.9C119.178 16.9 119.545 16.8333 119.912 16.7C120.295 16.5667 120.653 16.3833 120.987 16.15C121.337 15.9167 121.628 15.6417 121.862 15.325C122.112 15.0083 122.287 14.6667 122.387 14.3Z" fill="black"/>
</svg>
