<svg width="34" height="40" viewBox="0 0 34 40" fill="none" xmlns="http://www.w3.org/2000/svg">
<path d="M32.9687 31.0229C32.3708 32.4063 31.6625 33.6792 30.8416 34.85C29.7229 36.4479 28.8041 37.5521 28.1 38.1667C27.0062 39.1708 25.8312 39.6875 24.575 39.7167C23.675 39.7167 22.5875 39.4604 21.3208 38.9396C20.05 38.4208 18.8833 38.1667 17.8145 38.1667C16.6958 38.1667 15.4958 38.4208 14.2104 38.9396C12.9271 39.4604 11.8896 39.7333 11.0958 39.7583C9.89372 39.8104 8.69163 39.2812 7.49372 38.1667C6.72913 37.5 5.77288 36.3542 4.62497 34.7333C3.3958 33.0062 2.38538 30.9958 1.59372 28.7104C0.745801 26.2375 0.320801 23.8458 0.320801 21.5292C0.320801 18.8771 0.893718 16.5875 2.04163 14.6708C2.9458 13.1292 4.1458 11.9146 5.6458 11.0229C7.14788 10.1292 8.77288 9.67291 10.5208 9.64375C11.4791 9.64375 12.7354 9.93958 14.2916 10.5229C15.8479 11.1062 16.8479 11.4021 17.2833 11.4021C17.6125 11.4021 18.7187 11.0542 20.6021 10.3646C22.3791 9.725 23.8791 9.46042 25.1083 9.56458C28.4416 9.83333 30.9437 11.1458 32.6083 13.5125C29.6291 15.3187 28.1562 17.8458 28.1854 21.0896C28.2104 23.6167 29.1291 25.7188 30.9291 27.3875C31.7458 28.1625 32.6562 28.7604 33.6687 29.1854C33.4479 29.825 33.2146 30.4354 32.9687 31.0229ZM25.3291 0.958332C25.3291 2.9375 24.6041 4.7875 23.1646 6.49792C21.4229 8.53125 19.3187 9.70833 17.0375 9.52292C17.0083 9.28542 16.9937 9.03542 16.9937 8.77292C16.9937 6.87083 17.8187 4.8375 19.2916 3.17292C20.025 2.33125 20.9583 1.62916 22.0895 1.07083C23.2187 0.520831 24.2854 0.216665 25.2896 0.164581C25.3166 0.431248 25.3291 0.695832 25.3291 0.958332Z" fill="#95E1D3"/>
</svg>
