<svg width="52" height="52" viewBox="0 0 52 52" fill="none" xmlns="http://www.w3.org/2000/svg">
<rect width="52" height="52" rx="8" fill="#95E1D3"/>
<path d="M25.002 29.5C25.002 30.0523 25.4497 30.5 26.002 30.5C26.5542 30.5 27.002 30.0523 27.002 29.5V27H29.502C30.0542 27 30.502 26.5523 30.502 26C30.502 25.4477 30.0542 25 29.502 25H27.002V22.5C27.002 21.9477 26.5542 21.5 26.002 21.5C25.4497 21.5 25.002 21.9477 25.002 22.5V25H22.502C21.9497 25 21.502 25.4477 21.502 26C21.502 26.5523 21.9497 27 22.502 27H25.002V29.5Z" fill="white"/>
<path fill-rule="evenodd" clip-rule="evenodd" d="M26.002 36C31.5248 36 36.002 31.5228 36.002 26C36.002 20.4771 31.5248 16 26.002 16C20.4791 16 16.002 20.4771 16.002 26C16.002 31.5228 20.4791 36 26.002 36ZM26.002 34C30.4202 34 34.002 30.4183 34.002 26C34.002 21.5817 30.4202 18 26.002 18C21.5837 18 18.002 21.5817 18.002 26C18.002 30.4183 21.5837 34 26.002 34Z" fill="white"/>
</svg>
