<svg width="20" height="21" viewBox="0 0 20 21" fill="none" xmlns="http://www.w3.org/2000/svg">
<path d="M8 9.00002C8.5523 9.00002 9 9.44773 9 10V15C9 15.5523 8.5523 16 8 16C7.44772 16 7 15.5523 7 15V10C7 9.44773 7.44772 9.00002 8 9.00002Z" fill="#FF3A30"/>
<path d="M12 9.00002C12.5523 9.00002 13 9.44773 13 10V15C13 15.5523 12.5523 16 12 16C11.4477 16 11 15.5523 11 15V10C11 9.44773 11.4477 9.00002 12 9.00002Z" fill="#FF3A30"/>
<path fill-rule="evenodd" clip-rule="evenodd" d="M7 0C5.89543 0 5 0.895433 5 2V4H1C0.44772 4 0 4.44771 0 5C0 5.55228 0.44772 6 1 6H2.11765L2.88926 19.1174C2.95145 20.1746 3.82686 21 4.88581 21H15.1142C16.1731 21 17.0486 20.1746 17.1107 19.1174L17.8824 6H19C19.5523 6 20 5.55228 20 5C20 4.44771 19.5523 4 19 4H15V2C15 0.895433 14.1046 0 13 0H7ZM4.12111 6L4.88581 19H15.1142L15.8789 6H4.12111ZM7 2H13V4H7V2Z" fill="#FF3A30"/>
</svg>
