<svg width="19" height="19" viewBox="0 0 19 19" fill="none" xmlns="http://www.w3.org/2000/svg">
<path fill-rule="evenodd" clip-rule="evenodd" d="M18.0858 6.41416C18.8668 5.63311 18.8668 4.36678 18.0858 3.58573L15.4142 0.914157C14.6332 0.133107 13.3668 0.133107 12.5858 0.914157L0.58579 12.9142C0.21071 13.2892 0 13.7979 0 14.3284V17.9999C0 18.5522 0.44772 18.9999 1 18.9999H4.67157C5.20201 18.9999 5.71071 18.7892 6.08579 18.4142L18.0858 6.41416ZM10.8184 5.50999L13.4899 8.1816L4.67157 16.9999H2V14.3284L10.8184 5.50999ZM14.9042 6.76735L12.2326 4.09578L14 2.32837L16.6716 4.99994L14.9042 6.76735Z" fill="#95E1D3"/>
</svg>
