<svg width="404" height="308" viewBox="0 0 404 308" fill="none" xmlns="http://www.w3.org/2000/svg">
<g clip-path="url(#clip0_198_1987)">
<path d="M0 270.664H404V270.871H0V270.664Z" fill="#E0E0E0"/>
<path d="M56.7865 281.461H79.7256V281.668H56.7865V281.461Z" fill="#E0E0E0"/>
<path d="M85.6475 281.562H106.146V281.769H85.6475V281.562Z" fill="#E0E0E0"/>
<path d="M180.491 276.773H208.084V276.98H180.491V276.773Z" fill="#E0E0E0"/>
<path d="M128.456 283.184H166.804V283.39H128.456V283.184Z" fill="#E0E0E0"/>
<path d="M288.585 276.535H325.713V276.742H288.585V276.535Z" fill="#E0E0E0"/>
<path d="M271.488 276.535H284.101V276.742H271.488V276.535Z" fill="#E0E0E0"/>
<path d="M321.043 280.254H353.532V280.461H321.043V280.254Z" fill="#E0E0E0"/>
<path d="M212.505 233.794H368.521C369.744 233.792 370.915 233.294 371.778 232.409C372.642 231.524 373.127 230.324 373.127 229.074V4.67919C373.116 3.43584 372.627 2.24699 371.764 1.37087C370.902 0.494754 369.737 0.00212993 368.521 0L212.505 0C211.281 0 210.107 0.49734 209.242 1.38261C208.377 2.26788 207.891 3.46857 207.891 4.72053V229.074C207.891 230.326 208.377 231.526 209.242 232.412C210.107 233.297 211.281 233.794 212.505 233.794ZM368.521 0.165342C369.69 0.167532 370.81 0.644064 371.636 1.49034C372.461 2.33661 372.925 3.48348 372.925 4.67919V229.074C372.925 230.269 372.461 231.416 371.636 232.263C370.81 233.109 369.69 233.585 368.521 233.588H212.505C211.336 233.583 210.216 233.106 209.39 232.261C208.563 231.415 208.097 230.27 208.093 229.074V4.67919C208.097 3.48339 208.563 2.3378 209.39 1.49223C210.216 0.646663 211.336 0.169699 212.505 0.165342H368.521Z" fill="#E0E0E0"/>
<path d="M37.7258 233.794H193.751C194.973 233.79 196.144 233.291 197.008 232.407C197.873 231.523 198.36 230.324 198.364 229.074V4.67919C198.352 3.43508 197.86 2.24624 196.996 1.37035C196.133 0.494465 194.967 0.0021067 193.751 0L37.7258 0C36.5119 0.00430262 35.3486 0.497887 34.488 1.37377C33.6274 2.24966 33.1389 3.43727 33.1283 4.67919V229.074C33.1272 229.693 33.2453 230.306 33.4758 230.878C33.7062 231.45 34.0446 231.97 34.4715 232.408C34.8984 232.847 35.4055 233.195 35.9639 233.432C36.5223 233.67 37.121 233.793 37.7258 233.794ZM193.751 0.165342C194.919 0.169699 196.039 0.646663 196.865 1.49223C197.692 2.3378 198.158 3.48339 198.162 4.67919V229.074C198.158 230.27 197.692 231.415 196.865 232.261C196.039 233.106 194.919 233.583 193.751 233.588H37.7258C36.5571 233.583 35.4374 233.106 34.611 232.261C33.7845 231.415 33.3184 230.27 33.3141 229.074V4.67919C33.3184 3.48339 33.7845 2.3378 34.611 1.49223C35.4374 0.646663 36.5571 0.169699 37.7258 0.165342H193.751Z" fill="#E0E0E0"/>
<path d="M138.685 20.0625H346.341V127.171H138.685V20.0625Z" fill="#E0E0E0"/>
<path d="M135.979 20.0625H343.635V127.171H135.979V20.0625Z" fill="#EFEFEF"/>
<path d="M140.835 25.082H338.771V122.138H140.835V25.082Z" fill="#F4F4F4"/>
<path d="M324.113 122.146L270.43 25.0898H245.277L298.952 122.146H324.113Z" fill="white"/>
<path d="M290.509 122.146L236.825 25.0898H211.672L265.348 122.146H290.509Z" fill="white"/>
<path d="M220.584 122.146L166.909 25.0898H156.55L210.225 122.146H220.584Z" fill="white"/>
<path d="M205.272 25.082H212.593V122.138H205.272V25.082Z" fill="#E0E0E0"/>
<path d="M272.417 25.082H279.737V122.138H272.417V25.082Z" fill="#E0E0E0"/>
<path d="M202.703 21.3555H210.023V125.339H202.703V21.3555Z" fill="#F4F4F4"/>
<path d="M269.847 21.3555H277.168V125.339H269.847V21.3555Z" fill="#F4F4F4"/>
<path d="M140.835 25.082H142.879V122.138H140.835V25.082Z" fill="#E0E0E0"/>
<path d="M87.393 158.796C87.393 158.796 102.212 132.663 81.6561 111.863C81.6561 111.863 76.291 115.435 76.3718 120.246C76.4526 125.058 82.1167 126.273 80.9047 130.291C79.6927 134.309 74.3357 138.244 77.8424 141.559C81.3491 144.874 77.2849 147.834 77.5192 151.893C77.7535 155.952 87.393 158.796 87.393 158.796Z" fill="#E0E0E0"/>
<path d="M85.0663 163.07C85.0663 163.07 79.0629 133.491 104.984 120.379C104.984 120.379 108.967 125.505 107.408 130.043C105.848 134.582 100.095 133.912 100.014 138.112C99.9335 142.312 103.796 147.776 99.4406 149.793C95.0855 151.811 98.0428 155.928 96.5642 159.714C95.0855 163.5 85.0663 163.07 85.0663 163.07Z" fill="#EBEBEB"/>
<path d="M98.2607 155.555C98.2607 155.555 98.0022 167.889 88.0315 167.889C78.0608 167.889 77.7941 155.555 77.7941 155.555H98.2607Z" fill="#F4F4F4"/>
<path d="M167.45 158.281C167.45 158.281 167.111 167.888 153.997 167.888C140.883 167.888 140.536 158.281 140.536 158.281H167.45Z" fill="#EBEBEB"/>
<path d="M137.013 160.664C137.013 160.664 136.754 167.89 126.897 167.89C117.039 167.89 116.788 160.664 116.788 160.664H137.013Z" fill="#EBEBEB"/>
<path d="M158.214 173.883H180.289V264.466H158.214V173.883Z" fill="#EBEBEB"/>
<path d="M67.2009 264.457H176.055V270.666H67.2009V264.457Z" fill="#EBEBEB"/>
<path d="M62.9597 173.875H158.215V264.458H62.9597V173.875Z" fill="#F4F4F4"/>
<path d="M71.6368 182.637H149.536V214.763H71.6368V182.637Z" fill="#EBEBEB"/>
<path d="M71.6368 220.617H149.536V252.743H71.6368V220.617Z" fill="#EBEBEB"/>
<path d="M101.808 186.16H119.334C119.905 186.16 120.452 185.929 120.857 185.517C121.261 185.105 121.489 184.545 121.491 183.961C121.487 183.377 121.258 182.818 120.855 182.405C120.451 181.992 119.905 181.758 119.334 181.754H101.808C101.237 181.758 100.691 181.992 100.288 182.405C99.8839 182.818 99.6552 183.377 99.651 183.961C99.6531 184.545 99.8813 185.105 100.286 185.517C100.69 185.929 101.238 186.16 101.808 186.16Z" fill="#F4F4F4"/>
<path d="M101.808 224.137H119.334C119.905 224.137 120.452 223.905 120.857 223.493C121.261 223.081 121.489 222.522 121.491 221.938C121.487 221.354 121.258 220.795 120.855 220.382C120.451 219.969 119.905 219.735 119.334 219.73H101.808C101.237 219.735 100.691 219.969 100.288 220.382C99.8839 220.795 99.6552 221.354 99.651 221.938C99.6531 222.522 99.8813 223.081 100.286 223.493C100.69 223.905 101.238 224.137 101.808 224.137Z" fill="#F4F4F4"/>
<path d="M60.0264 167.891H158.223V173.884H60.0264V167.891Z" fill="#EBEBEB"/>
<path d="M158.223 167.879H183.384V173.873H158.223V167.879Z" fill="#E0E0E0"/>
<path d="M64.9472 35.1445H112.765V91.5098H64.9472V35.1445Z" fill="#EBEBEB"/>
<path d="M59.5169 35.1445H111.334V91.5098H59.5169V35.1445Z" fill="#F4F4F4"/>
<path d="M63.856 39.582H106.995V87.0601H63.856V39.582Z" fill="white"/>
<path d="M78.1176 51.0898H92.7343C94.8362 51.0898 96.54 52.8332 96.54 54.9837V71.6585C96.54 73.8089 94.8362 75.5523 92.7343 75.5523H78.1176C76.0158 75.5523 74.312 73.8089 74.312 71.6585V54.9837C74.312 52.8332 76.0158 51.0898 78.1176 51.0898Z" fill="#F4F4F4"/>
<path d="M186.575 218.188H192.126V270.667H186.575V218.188Z" fill="#E0E0E0"/>
<path opacity="0.5" d="M186.575 218.188H189.354V270.667H186.575V218.188Z" fill="#F4F4F4"/>
<path d="M210.888 232.885H214.702C214.284 232.523 213.948 232.072 213.717 231.564C213.487 231.055 213.368 230.502 213.368 229.941H258.56C258.559 230.502 258.439 231.056 258.207 231.565C257.975 232.073 257.638 232.523 257.219 232.885H260.984C262.334 232.885 263.629 233.433 264.583 234.41C265.538 235.387 266.074 236.711 266.074 238.093V253.279C266.074 254.661 265.538 255.986 264.583 256.962C263.629 257.939 262.334 258.488 260.984 258.488H210.888C209.538 258.488 208.243 257.939 207.288 256.962C206.334 255.986 205.797 254.661 205.797 253.279V238.093C205.797 236.711 206.334 235.387 207.288 234.41C208.243 233.433 209.538 232.885 210.888 232.885Z" fill="#F4F4F4"/>
<path d="M252.686 244.102H283.075C284.967 244.102 286.501 245.671 286.501 247.607V254.981C286.501 256.917 284.967 258.486 283.075 258.486H252.686C250.794 258.486 249.26 256.917 249.26 254.981V247.607C249.26 245.671 250.794 244.102 252.686 244.102Z" fill="#EBEBEB"/>
<path d="M250.408 240.93H285.354C285.987 240.93 286.501 241.455 286.501 242.104V243.443C286.501 244.091 285.987 244.617 285.354 244.617H250.408C249.774 244.617 249.26 244.091 249.26 243.443V242.104C249.26 241.455 249.774 240.93 250.408 240.93Z" fill="#E0E0E0"/>
<path d="M245.826 194.75C245.826 194.75 245.301 212.111 225.424 212.111C205.547 212.111 205.022 194.75 205.022 194.75H245.826Z" fill="#EBEBEB"/>
<path d="M316.906 212.117H341.695V218.185H316.906V212.117Z" fill="#E0E0E0"/>
<path d="M167.337 212.117H316.897V218.185H167.337V212.117Z" fill="#F4F4F4"/>
<path d="M316.906 258.488H341.695V264.556H316.906V258.488Z" fill="#E0E0E0"/>
<path d="M336.137 218.188H341.688V270.667H336.137V218.188Z" fill="#E0E0E0"/>
<path opacity="0.5" d="M336.136 218.188H338.916V270.667H336.136V218.188Z" fill="#F4F4F4"/>
<path d="M314.126 218.188H319.677V270.667H314.126V218.188Z" fill="#F4F4F4"/>
<path d="M316.897 218.188H319.677V270.667H316.897V218.188Z" fill="#E0E0E0"/>
<path d="M167.345 218.188H172.896V270.667H167.345V218.188Z" fill="#F4F4F4"/>
<path d="M170.116 218.188H172.896V270.667H170.116V218.188Z" fill="#E0E0E0"/>
<path d="M167.337 258.488H316.897V264.556H167.337V258.488Z" fill="#F4F4F4"/>
<path d="M277.014 208.539H307.169V212.119H277.014V208.539Z" fill="#E0E0E0"/>
<path d="M266.212 208.531H277.015V212.111H266.212V208.531Z" fill="#EBEBEB"/>
<path d="M202 308.002C115.477 308.002 45.3369 303.812 45.3369 298.644C45.3369 293.475 115.477 289.285 202 289.285C288.523 289.285 358.663 293.475 358.663 298.644C358.663 303.812 288.523 308.002 202 308.002Z" fill="#F5F5F5"/>
<path d="M227.96 79.1155C227.904 88.9121 234.764 88.8129 234.626 85.7292C234.489 82.6456 236.186 75.4036 234.626 76.1063C233.067 76.809 227.985 74.7836 227.96 79.1155Z" fill="#1A2E35"/>
<path d="M232.276 96.8558C231.33 96.7814 229.431 97.6825 229.262 100.237C229.218 100.979 229.006 101.701 228.642 102.345C228.279 102.989 227.775 103.538 227.169 103.949C227.169 103.949 230.312 104.338 232.373 102.668C234.053 101.32 234.797 98.3687 233.916 97.7073C233.432 97.3112 232.874 97.0213 232.276 96.8558Z" fill="#1A2E35"/>
<path d="M233.511 89.8984C231.895 91.3617 230.417 95.2307 234.061 97.066C237.705 98.9013 243.434 94.5859 243.434 94.5859L237.139 91.6015L233.511 89.8984Z" fill="#1A2E35"/>
<path d="M231.718 97.2127C231.806 96.677 231.953 96.1529 232.154 95.6503C232.169 95.6084 232.193 95.57 232.223 95.5373C232.252 95.5046 232.288 95.4783 232.328 95.4599C232.368 95.4414 232.411 95.4312 232.454 95.4298C232.498 95.4285 232.542 95.4359 232.582 95.4518H232.647L234.885 96.9813C234.921 97.0062 234.952 97.0382 234.976 97.0754C235 97.1126 235.017 97.1542 235.025 97.198C235.034 97.2418 235.033 97.2868 235.024 97.3305C235.016 97.3741 234.999 97.4156 234.974 97.4525C234.949 97.4868 234.919 97.5174 234.885 97.5434C234.562 97.7836 234.216 97.9887 233.851 98.1552C233.326 98.3701 232.235 97.7584 231.863 97.4938C231.817 97.4645 231.779 97.4229 231.753 97.3735C231.728 97.3241 231.716 97.2686 231.718 97.2127Z" fill="#15399E"/>
<path opacity="0.3" d="M231.718 97.2127C231.806 96.677 231.953 96.1529 232.154 95.6503C232.169 95.6084 232.193 95.57 232.223 95.5373C232.252 95.5046 232.288 95.4783 232.328 95.4599C232.368 95.4414 232.411 95.4312 232.454 95.4298C232.498 95.4285 232.542 95.4359 232.582 95.4518H232.647L234.885 96.9813C234.921 97.0062 234.952 97.0382 234.976 97.0754C235 97.1126 235.017 97.1542 235.025 97.198C235.034 97.2418 235.033 97.2868 235.024 97.3305C235.016 97.3741 234.999 97.4156 234.974 97.4525C234.949 97.4868 234.919 97.5174 234.885 97.5434C234.562 97.7836 234.216 97.9887 233.851 98.1552C233.326 98.3701 232.235 97.7584 231.863 97.4938C231.817 97.4645 231.779 97.4229 231.753 97.3735C231.728 97.3241 231.716 97.2686 231.718 97.2127Z" fill="black"/>
<path d="M255.804 93.154C256.701 92.8481 258.753 93.2615 259.513 95.7086C259.729 96.4183 260.103 97.0673 260.604 97.6051C261.106 98.1428 261.722 98.5547 262.405 98.8087C262.405 98.8087 259.44 99.9496 257.048 98.8087C255.109 97.9076 253.735 95.2125 254.406 94.3528C254.786 93.8586 255.262 93.4504 255.804 93.154Z" fill="#1A2E35"/>
<path d="M246.9 76.332C250.173 77.2414 254.576 81.2096 252.621 86.079C254.552 87.4265 257.025 91.3038 254.132 93.7839C251.021 96.4542 243.369 92.7092 243.369 92.7092L243.313 91.4361L242.4 81.9619L246.9 76.332Z" fill="#1A2E35"/>
<path d="M256.426 93.3692C256.211 92.8677 255.94 92.3933 255.618 91.9555C255.561 91.8844 255.479 91.8392 255.39 91.8299C255.3 91.8206 255.211 91.8479 255.141 91.9059L255.093 91.9555L253.283 93.9809C253.252 94.0124 253.228 94.0498 253.211 94.0909C253.194 94.1321 253.186 94.1762 253.186 94.2207C253.186 94.2652 253.194 94.3093 253.211 94.3505C253.228 94.3916 253.252 94.429 253.283 94.4604C253.308 94.4918 253.342 94.5148 253.38 94.5266C253.747 94.6807 254.129 94.7943 254.519 94.8655C255.085 94.9482 255.957 94.0967 256.297 93.7495C256.353 93.7069 256.396 93.6478 256.419 93.5799C256.442 93.512 256.445 93.4385 256.426 93.3692Z" fill="#15399E"/>
<path opacity="0.3" d="M256.426 93.3692C256.211 92.8677 255.94 92.3933 255.618 91.9555C255.561 91.8844 255.479 91.8392 255.39 91.8299C255.3 91.8206 255.211 91.8479 255.141 91.9059L255.093 91.9555L253.283 93.9809C253.252 94.0124 253.228 94.0498 253.211 94.0909C253.194 94.1321 253.186 94.1762 253.186 94.2207C253.186 94.2652 253.194 94.3093 253.211 94.3505C253.228 94.3916 253.252 94.429 253.283 94.4604C253.308 94.4918 253.342 94.5148 253.38 94.5266C253.747 94.6807 254.129 94.7943 254.519 94.8655C255.085 94.9482 255.957 94.0967 256.297 93.7495C256.353 93.7069 256.396 93.6478 256.419 93.5799C256.442 93.512 256.445 93.4385 256.426 93.3692Z" fill="black"/>
<path d="M226.983 110.836C225.44 112.059 223.751 113.366 222.054 114.556C220.358 115.747 218.653 116.945 216.899 118.045C215.146 119.144 213.368 120.17 211.575 121.145L210.225 121.848L208.852 122.501C208.399 122.724 207.939 122.922 207.47 123.104L206.783 123.394C206.549 123.485 206.298 123.6 206.153 123.642C205.308 123.905 204.443 124.096 203.567 124.212C202.614 124.353 201.612 124.452 200.594 124.526C198.566 124.659 196.481 124.716 194.388 124.725C192.296 124.733 190.179 124.725 188.07 124.659L181.727 124.477L181.331 127.726C185.575 128.6 189.861 129.249 194.17 129.668C196.344 129.867 198.525 130.016 200.755 130.032C201.871 130.032 203.002 130.032 204.165 129.925C205.417 129.851 206.657 129.643 207.866 129.305C208.238 129.205 208.472 129.106 208.747 129.015L209.555 128.726C210.096 128.544 210.629 128.346 211.171 128.122L212.738 127.478L214.273 126.783C216.303 125.848 218.28 124.8 220.196 123.642C222.103 122.493 223.977 121.302 225.787 120.029C227.635 118.748 229.415 117.369 231.12 115.895L226.983 110.836Z" fill="#FD897B"/>
<path d="M235.37 107.124C233.358 105.52 225.076 110.77 222.555 112.961L224.389 124.311C224.389 124.311 236.307 119.202 237.026 115.714C237.77 112.068 236.889 108.348 235.37 107.124Z" fill="#1A2E35"/>
<path d="M182.607 124.761L177.614 120.801L177.218 126.927C177.218 126.927 180.66 129.109 182.931 127.753L182.607 124.761Z" fill="#FD897B"/>
<path d="M173.162 120.195L170.609 123.105L177.251 126.925L177.646 120.799L173.162 120.195Z" fill="#FD897B"/>
<path d="M268.029 290.565L261.735 291.045L259.44 276.222L265.726 275.742L268.029 290.565Z" fill="#FD897B"/>
<path d="M312.559 269.846L307.218 273.285L297.708 261.744L303.048 258.297L312.559 269.846Z" fill="#FD897B"/>
<path d="M305.529 272.052L310.53 266.902C310.616 266.814 310.731 266.76 310.852 266.751C310.974 266.742 311.095 266.778 311.193 266.852L315.742 270.333C315.952 270.506 316.086 270.758 316.114 271.032C316.143 271.306 316.064 271.581 315.895 271.796L315.823 271.879C314.053 273.64 313.108 274.4 310.91 276.666C309.561 278.063 307.726 280.237 305.86 282.163C303.993 284.089 302.038 282.295 302.628 281.336C305.359 276.98 304.866 275.351 305.052 273.135C305.074 272.727 305.244 272.341 305.529 272.052Z" fill="#1A2E35"/>
<path d="M261.315 290.118H268.409C268.534 290.117 268.655 290.162 268.751 290.244C268.847 290.325 268.912 290.439 268.934 290.564L270.058 296.301C270.103 296.553 270.049 296.813 269.909 297.025C269.768 297.237 269.552 297.384 269.306 297.434C269.231 297.442 269.155 297.442 269.08 297.434C266.607 297.434 265.404 297.244 262.285 297.244C260.37 297.244 255.013 297.442 252.338 297.442C249.664 297.442 249.397 294.764 250.488 294.524C255.336 293.433 258.673 291.936 260.265 290.498C260.557 290.244 260.931 290.108 261.315 290.118Z" fill="#1A2E35"/>
<path d="M259.441 276.221L260.717 284.455L266.923 283.389L265.735 275.75L259.441 276.221Z" fill="#E77064"/>
<path d="M303.048 258.305L297.707 261.744L301.642 266.522L307.104 263.224L303.048 258.305Z" fill="#E77064"/>
<path d="M263.246 141.474L238.085 146.492C225.084 110.472 227.912 109.29 227.912 109.29C229.74 108.261 231.629 107.35 233.568 106.562L233.908 106.43C235.524 105.826 235.847 105.735 237.996 105.09C241.697 104.189 245.147 103.437 249.421 102.817L250.229 102.701C251.037 102.602 251.772 102.519 252.516 102.445C253.017 102.387 253.518 102.354 253.994 102.321L255.61 102.23C258.374 102.089 260.353 102.131 260.353 102.131C259.586 124.626 260.83 131.082 263.246 141.474Z" fill="#1A2E35"/>
<path d="M245.785 89.8984C245.785 93.8005 246.374 100.836 249.429 102.836C249.429 102.836 249.146 106.854 242.318 108.21C234.804 109.706 238.004 105.11 238.004 105.11C241.906 103.291 241.236 100.199 239.943 97.4215L245.785 89.8984Z" fill="#FD897B"/>
<path d="M243.402 92.9648L239.943 97.4208C240.243 98.0662 240.492 98.7352 240.687 99.4215C242.214 98.8758 244.032 96.6933 243.919 94.982C243.869 94.2828 243.694 93.5989 243.402 92.9648Z" fill="#E77064"/>
<path d="M246.149 80.9355C246.957 87.2929 247.45 89.9632 244.961 93.8074C241.22 99.5944 233.415 99.2224 230.757 93.2453C228.333 87.8634 227.428 78.3644 232.963 74.6856C233.899 74.0527 234.948 73.6149 236.05 73.397C237.151 73.1792 238.284 73.1856 239.383 73.4159C240.483 73.6463 241.527 74.096 242.456 74.7394C243.386 75.3828 244.182 76.2073 244.8 77.1657C245.527 78.2995 245.989 79.5895 246.149 80.9355Z" fill="#FD897B"/>
<path d="M225.924 70.8656C225.81 71.8738 225.884 72.8949 226.142 73.8748C226.2 73.5422 226.279 73.2137 226.377 72.8911C228.59 65.401 238.561 67.1867 241.567 70.4109C246.415 68.989 251.029 70.1216 250.415 76.1979C250.338 77.7634 249.787 79.2657 248.839 80.4968C249.59 82.6297 248.839 86.0275 246.358 86.1267C242.868 86.2673 239.555 81.5385 238.222 78.9426C235.798 79.3642 232.307 79.7693 229.657 79.1079C229.213 79.3807 228.849 79.5709 228.849 79.5709C226.029 78.0249 223.88 76.5286 225.924 70.8656Z" fill="#1A2E35"/>
<path d="M248.298 85.2744C248.395 86.5078 248.015 87.7309 247.239 88.6804C246.189 89.9288 244.815 89.193 244.322 87.7132C243.91 86.3739 243.967 84.117 245.373 83.4143C245.617 83.2969 245.881 83.2299 246.15 83.2171C246.42 83.2043 246.689 83.2459 246.942 83.3396C247.196 83.4332 247.429 83.5771 247.628 83.763C247.828 83.9489 247.989 84.1731 248.104 84.4229C248.225 84.6901 248.291 84.9799 248.298 85.2744Z" fill="#FD897B"/>
<path d="M238.465 146.495C238.465 146.495 238.368 197.602 242.456 216.848C246.707 236.871 259.206 282.423 259.206 282.423L268.256 281.224C268.256 281.224 261.17 235.209 258.156 215.31C254.867 193.626 256.879 142.824 256.879 142.824L238.465 146.495Z" fill="#15399E"/>
<path opacity="0.3" d="M238.465 146.495C238.465 146.495 238.368 197.602 242.456 216.848C246.707 236.871 259.206 282.423 259.206 282.423L268.256 281.224C268.256 281.224 261.17 235.209 258.156 215.31C254.867 193.626 256.879 142.824 256.879 142.824L238.465 146.495Z" fill="black"/>
<path d="M257.662 283.225L269.807 281.621L269.29 277.223L255.505 278.876L257.662 283.225Z" fill="#1A2E35"/>
<path d="M244.726 145.172C244.726 145.172 258.276 187.409 265.007 211.739C272.101 237.408 299.299 265.798 299.299 265.798L307.096 261.185C307.096 261.185 288.512 234.234 281.684 210.284C267.778 161.665 273.491 151.364 263.246 141.477L244.726 145.172Z" fill="#15399E"/>
<path opacity="0.3" d="M244.726 145.172C244.726 145.172 258.276 187.409 265.007 211.739C272.101 237.408 299.299 265.798 299.299 265.798L307.096 261.185C307.096 261.185 288.512 234.234 281.684 210.284C267.778 161.665 273.491 151.364 263.246 141.477L244.726 145.172Z" fill="black"/>
<path d="M298.03 267.077L308.865 260.678L306.167 256.727L294.135 263.514L298.03 267.077Z" fill="#1A2E35"/>
<path d="M237.18 84.5494C237.277 85.0619 237.092 85.5249 236.76 85.591C236.429 85.6572 236.09 85.2934 235.952 84.7643C235.815 84.2352 236.041 83.7805 236.372 83.7144C236.704 83.6482 237.083 84.0368 237.18 84.5494Z" fill="#1A2E35"/>
<path d="M231.532 85.6723C231.629 86.1848 231.443 86.6561 231.112 86.7222C230.781 86.7883 230.441 86.4246 230.344 85.8955C230.247 85.3664 230.433 84.9117 230.764 84.8538C231.096 84.796 231.435 85.1514 231.532 85.6723Z" fill="#1A2E35"/>
<path d="M230.91 84.8614L229.642 84.7539C229.642 84.7539 230.442 85.5889 230.91 84.8614Z" fill="#1A2E35"/>
<path d="M233.188 86.2578C232.965 87.5111 232.573 88.7269 232.025 89.8705C232.314 90.0093 232.63 90.0812 232.95 90.0812C233.27 90.0812 233.585 90.0093 233.875 89.8705L233.188 86.2578Z" fill="#FD5652"/>
<path d="M235.992 91.5248C236.667 91.4116 237.306 91.133 237.853 90.7126C238.4 90.2923 238.84 89.7427 239.135 89.1108C239.143 89.0929 239.148 89.0735 239.148 89.0538C239.149 89.0341 239.146 89.0144 239.139 88.996C239.132 88.9775 239.122 88.9606 239.109 88.9463C239.096 88.9319 239.08 88.9204 239.062 88.9123C239.026 88.8983 238.985 88.8991 238.949 88.9144C238.913 88.9298 238.884 88.9586 238.868 88.995C238.586 89.5758 238.174 90.0804 237.666 90.4682C237.158 90.856 236.568 91.1159 235.943 91.2271C235.924 91.2301 235.906 91.237 235.889 91.2475C235.873 91.2579 235.858 91.2716 235.847 91.2878C235.836 91.3039 235.828 91.3223 235.823 91.3417C235.819 91.3611 235.819 91.3812 235.822 91.4007C235.83 91.4395 235.852 91.4738 235.883 91.4967C235.915 91.5197 235.954 91.5297 235.992 91.5248Z" fill="#1A2E35"/>
<path d="M238.465 82.3492C238.543 82.3452 238.617 82.3117 238.672 82.2552C238.727 82.1986 238.76 82.1231 238.764 82.0433C238.76 81.959 238.726 81.8791 238.667 81.8201C238.321 81.4871 237.902 81.2436 237.445 81.1099C236.988 80.9762 236.507 80.9561 236.041 81.0513C235.964 81.0744 235.9 81.127 235.861 81.1979C235.821 81.2689 235.811 81.3526 235.831 81.4315C235.84 81.4696 235.857 81.5054 235.88 81.5369C235.903 81.5683 235.932 81.5948 235.965 81.6148C235.998 81.6347 236.034 81.6478 236.072 81.6533C236.11 81.6587 236.149 81.6564 236.186 81.6465C236.556 81.5793 236.936 81.6012 237.297 81.7102C237.657 81.8192 237.988 82.0125 238.263 82.2748C238.318 82.325 238.391 82.3516 238.465 82.3492Z" fill="#1A2E35"/>
<path d="M228.397 83.4988C228.456 83.4996 228.514 83.4817 228.563 83.4478C228.612 83.4138 228.65 83.3653 228.671 83.3087C228.811 82.9546 229.029 82.6383 229.308 82.3845C229.587 82.1307 229.919 81.9462 230.279 81.8454C230.318 81.8384 230.355 81.8237 230.388 81.802C230.421 81.7804 230.45 81.7522 230.473 81.7192C230.495 81.6862 230.511 81.6489 230.519 81.6096C230.528 81.5702 230.529 81.5296 230.522 81.4899C230.506 81.4108 230.461 81.341 230.396 81.2948C230.332 81.2486 230.252 81.2297 230.174 81.2419C229.713 81.3597 229.287 81.5885 228.93 81.9091C228.573 82.2298 228.296 82.6331 228.122 83.0855C228.106 83.1224 228.097 83.1622 228.096 83.2025C228.095 83.2429 228.102 83.2831 228.116 83.3208C228.13 83.3584 228.152 83.3928 228.179 83.422C228.206 83.4511 228.239 83.4744 228.275 83.4906L228.397 83.4988Z" fill="#1A2E35"/>
<path d="M236.501 89.0784C236.751 89.0794 236.998 89.0209 237.222 88.9076C237.447 88.7942 237.642 88.6291 237.794 88.4253C238.174 87.8189 238.427 87.1388 238.538 86.4275C238.65 85.7163 238.616 84.9892 238.44 84.2917C237.979 81.6793 236.38 79.5547 234.869 79.5547C234.617 79.5584 234.37 79.6197 234.145 79.7341C233.92 79.8486 233.722 80.0133 233.568 80.2161C233.188 80.8224 232.934 81.5026 232.823 82.2138C232.712 82.9251 232.745 83.6522 232.921 84.3496C233.382 86.962 234.99 89.0784 236.501 89.0784ZM234.885 79.7862C236.299 79.7862 237.818 81.8364 238.262 84.3496C238.545 86.003 238.319 87.4911 237.656 88.293C237.522 88.472 237.35 88.6171 237.152 88.7174C236.955 88.8177 236.737 88.8705 236.517 88.8717C235.095 88.8717 233.584 86.8298 233.139 84.3165C232.968 83.6521 232.933 82.9585 233.038 82.2797C233.142 81.6009 233.383 80.9516 233.745 80.3731C233.876 80.194 234.046 80.0479 234.24 79.9461C234.435 79.8444 234.65 79.7897 234.869 79.7862H234.885Z" fill="#F9F9F9"/>
<path d="M230.223 89.9046C230.485 89.9008 230.742 89.8364 230.976 89.7161C231.21 89.5958 231.414 89.4228 231.573 89.2102C231.936 88.6536 232.181 88.0258 232.294 87.3668C232.406 86.7078 232.384 86.032 232.227 85.3825C231.815 82.952 230.264 80.9844 228.769 80.9844C228.507 80.9915 228.25 81.0583 228.017 81.1798C227.783 81.3014 227.579 81.4747 227.42 81.6871C227.06 82.2437 226.817 82.87 226.704 83.5271C226.592 84.1842 226.612 84.858 226.765 85.5065C227.169 87.9453 228.721 89.9046 230.223 89.9046ZM228.793 81.1911C230.199 81.1911 231.654 83.0842 232.025 85.4238C232.17 86.0437 232.191 86.6872 232.085 87.3154C231.979 87.9435 231.75 88.5432 231.411 89.0779C231.267 89.2628 231.085 89.4138 230.879 89.5208C230.673 89.6277 230.446 89.6882 230.215 89.6979C228.809 89.6979 227.347 87.813 226.983 85.4734C226.84 84.8539 226.819 84.2111 226.923 83.5834C227.027 82.9556 227.254 82.3557 227.589 81.8194C227.733 81.633 227.914 81.4804 228.12 81.3719C228.327 81.2635 228.553 81.2018 228.785 81.1911H228.793Z" fill="#F9F9F9"/>
<path d="M303.67 275.055C304.478 275.055 305.286 273.781 305.763 273.046C305.779 273.021 305.787 272.992 305.787 272.963C305.787 272.934 305.779 272.905 305.763 272.88C305.745 272.856 305.722 272.837 305.695 272.825C305.668 272.814 305.638 272.81 305.609 272.814C305.351 272.872 303.129 273.368 302.846 274.145C302.814 274.231 302.805 274.324 302.821 274.414C302.836 274.504 302.876 274.589 302.935 274.658C303.011 274.786 303.119 274.89 303.249 274.96C303.378 275.03 303.524 275.063 303.67 275.055ZM305.359 273.194C304.736 274.153 304.13 274.724 303.694 274.749C303.597 274.75 303.502 274.725 303.417 274.677C303.332 274.629 303.261 274.56 303.209 274.476C303.182 274.447 303.164 274.41 303.156 274.37C303.149 274.331 303.154 274.29 303.169 274.253C303.314 273.839 304.47 273.426 305.359 273.194Z" fill="#15399E"/>
<path d="M304.996 273.195C305.24 273.197 305.484 273.169 305.723 273.113C305.747 273.104 305.769 273.09 305.787 273.071C305.806 273.053 305.819 273.03 305.828 273.005C305.844 272.957 305.844 272.905 305.828 272.857C305.771 272.807 304.535 271.559 303.622 271.559H303.557C303.444 271.566 303.334 271.598 303.234 271.652C303.134 271.706 303.046 271.782 302.976 271.873C302.893 271.961 302.842 272.075 302.83 272.196C302.819 272.318 302.847 272.439 302.911 272.542C303.17 272.989 304.204 273.195 304.996 273.195ZM305.359 272.873C304.6 272.964 303.372 272.741 303.121 272.369C303.081 272.311 303.048 272.22 303.17 272.063C303.212 272.002 303.267 271.952 303.332 271.918C303.397 271.883 303.468 271.865 303.541 271.864C304.236 271.997 304.872 272.35 305.359 272.873Z" fill="#15399E"/>
<path d="M258.996 291.252C259.664 291.235 260.33 291.152 260.983 291.004C261.014 290.997 261.043 290.981 261.064 290.957C261.086 290.934 261.1 290.904 261.104 290.871C261.108 290.84 261.102 290.808 261.088 290.78C261.073 290.752 261.051 290.729 261.024 290.714C260.725 290.566 258.131 289.243 257.38 289.689C257.312 289.734 257.255 289.795 257.216 289.867C257.177 289.939 257.155 290.02 257.153 290.103C257.145 290.242 257.169 290.382 257.224 290.51C257.278 290.638 257.362 290.75 257.468 290.838C257.918 291.147 258.456 291.292 258.996 291.252ZM260.474 290.805C259.093 291.037 258.05 290.979 257.646 290.623C257.577 290.563 257.522 290.486 257.487 290.4C257.452 290.314 257.437 290.22 257.444 290.127C257.443 290.096 257.449 290.065 257.463 290.038C257.478 290.01 257.499 289.987 257.525 289.97C257.929 289.731 259.367 290.293 260.474 290.797V290.805Z" fill="#15399E"/>
<path d="M260.943 291.003H261.032C261.056 290.987 261.075 290.965 261.086 290.938C261.098 290.912 261.101 290.883 261.097 290.854C261.097 290.738 260.709 288.109 259.303 288.109H259.182C258.778 288.151 258.665 288.357 258.64 288.531C258.527 289.259 260.095 290.664 260.887 291.011L260.943 291.003ZM259.327 288.39C260.24 288.39 260.644 289.912 260.782 290.573C259.974 290.085 258.899 288.986 258.964 288.548C258.964 288.548 258.964 288.415 259.246 288.39H259.327Z" fill="#15399E"/>
<path d="M236.558 83.7368L235.289 83.6211C235.289 83.6211 236.089 84.4643 236.558 83.7368Z" fill="#1A2E35"/>
<path d="M242.109 113.704C252.613 109.629 255.894 103.527 255.643 102.246L254.027 102.345H253.712C253.309 102.356 252.907 102.392 252.508 102.453C251.765 102.519 250.997 102.602 250.221 102.709L249.413 102.825C245.557 103.305 241.739 104.064 237.988 105.098C236.275 105.611 235.71 105.776 234.756 106.123L233.948 106.438L233.609 106.57C232.769 108.422 232.954 112.208 242.109 113.704Z" fill="#FD897B"/>
<path d="M242.109 113.704C252.613 109.629 255.894 103.527 255.643 102.246L254.027 102.345H253.712C251.579 105.445 246.909 109.728 242.149 110.315C238.32 109.488 234.708 108.546 234.74 106.123L233.932 106.438L233.593 106.57C232.769 108.422 232.954 112.208 242.109 113.704Z" fill="#15399E"/>
<path opacity="0.3" d="M242.109 113.704C252.613 109.629 255.894 103.527 255.643 102.246L254.027 102.345H253.712C251.579 105.445 246.909 109.728 242.149 110.315C238.32 109.488 234.708 108.546 234.74 106.123L233.932 106.438L233.593 106.57C232.769 108.422 232.954 112.208 242.109 113.704Z" fill="black"/>
<path d="M263.335 139.888L264.951 141.971C265.072 142.128 264.894 142.352 264.603 142.409L238.214 147.667C237.988 147.717 237.778 147.667 237.737 147.494L237.075 145.237C237.026 145.08 237.196 144.906 237.446 144.856L262.931 139.78C263.002 139.765 263.075 139.766 263.145 139.785C263.215 139.803 263.28 139.839 263.335 139.888Z" fill="#1A2E35"/>
<path d="M260.467 143.486L261.146 143.353C261.283 143.353 261.372 143.238 261.348 143.147L260.459 140.22C260.459 140.129 260.297 140.088 260.168 140.113L259.481 140.245C259.344 140.245 259.255 140.369 259.279 140.452L260.168 143.386C260.199 143.435 260.246 143.472 260.3 143.49C260.355 143.508 260.413 143.506 260.467 143.486Z" fill="#15399E"/>
<path opacity="0.3" d="M260.467 143.486L261.146 143.353C261.283 143.353 261.372 143.238 261.348 143.147L260.459 140.22C260.459 140.129 260.297 140.088 260.168 140.113L259.481 140.245C259.344 140.245 259.255 140.369 259.279 140.452L260.168 143.386C260.199 143.435 260.246 143.472 260.3 143.49C260.355 143.508 260.413 143.506 260.467 143.486Z" fill="black"/>
<path d="M258.672 112.11C258.979 114.07 259.27 116.244 259.48 118.278C259.691 120.311 259.876 122.411 259.973 124.527C260.027 125.569 260.059 126.611 260.07 127.652V130.753C260.03 132.777 259.876 134.798 259.61 136.804C259.456 137.491 259.182 138.143 258.802 138.73C258.316 139.534 257.776 140.302 257.186 141.029C255.895 142.597 254.513 144.085 253.049 145.485C251.57 146.94 250.019 148.345 248.427 149.717C246.835 151.09 245.195 152.454 243.579 153.768L245.316 156.513C249.119 154.381 252.755 151.952 256.192 149.246C257.968 147.857 259.642 146.338 261.201 144.699C262.035 143.823 262.8 142.88 263.488 141.88C264.343 140.7 264.951 139.352 265.274 137.92L265.573 136.168C265.678 135.597 265.751 135.027 265.815 134.465C265.977 133.324 266.066 132.191 266.155 131.058C266.323 128.806 266.374 126.546 266.308 124.288C266.243 122.047 266.122 119.815 265.904 117.591C265.686 115.368 265.411 113.185 264.975 110.887L258.672 112.11Z" fill="#FD897B"/>
<path d="M264.038 103.861C267.496 106.722 266.672 115.22 266.672 115.22L255.037 119.139C255.037 119.139 255.57 109.342 256.136 105.82C256.831 101.629 260.644 101.042 264.038 103.861Z" fill="#1A2E35"/>
<path d="M245.001 153.239L239.741 151.238L240.549 156.356C240.549 156.356 244.363 157.761 246.318 155.959L245.001 153.239Z" fill="#FD897B"/>
<path d="M233.479 151.999V155.951L240.549 156.356L239.741 151.238L233.479 151.999Z" fill="#FD897B"/>
<path d="M240.146 147.536L240.824 147.404C240.962 147.404 241.051 147.288 241.026 147.197L240.137 144.271C240.137 144.18 239.976 144.139 239.839 144.163L239.16 144.296C239.022 144.296 238.934 144.42 238.958 144.502L239.847 147.437C239.871 147.52 239.976 147.569 240.146 147.536Z" fill="#15399E"/>
<path opacity="0.3" d="M240.146 147.536L240.824 147.404C240.962 147.404 241.051 147.288 241.026 147.197L240.137 144.271C240.137 144.18 239.976 144.139 239.839 144.163L239.16 144.296C239.022 144.296 238.934 144.42 238.958 144.502L239.847 147.437C239.871 147.52 239.976 147.569 240.146 147.536Z" fill="black"/>
<path d="M250.302 145.501L250.989 145.369C251.126 145.369 251.215 145.253 251.183 145.162L250.294 142.236C250.294 142.145 250.14 142.103 250.003 142.128L249.316 142.26C249.187 142.26 249.09 142.384 249.122 142.467L250.011 145.402C250.035 145.501 250.165 145.543 250.302 145.501Z" fill="#15399E"/>
<path opacity="0.3" d="M250.302 145.501L250.989 145.369C251.126 145.369 251.215 145.253 251.183 145.162L250.294 142.236C250.294 142.145 250.14 142.103 250.003 142.128L249.316 142.26C249.187 142.26 249.09 142.384 249.122 142.467L250.011 145.402C250.035 145.501 250.165 145.543 250.302 145.501Z" fill="black"/>
<path d="M301.763 193.707L259.877 287.308C258.917 289.435 257.173 291.087 255.026 291.903C252.879 292.72 250.504 292.634 248.419 291.664L241.769 288.556L87.7889 216.425C85.709 215.446 84.0925 213.664 83.2931 211.469C82.4936 209.274 82.5762 206.844 83.5227 204.711L120.537 122.04L125.385 111.119C126.349 108.994 128.093 107.345 130.238 106.529C132.384 105.714 134.757 105.797 136.843 106.762L297.481 181.993C299.561 182.972 301.178 184.753 301.98 186.948C302.782 189.142 302.705 191.572 301.763 193.707Z" fill="#15399E"/>
<path opacity="0.1" d="M301.763 193.707L259.877 287.308C258.917 289.435 257.173 291.087 255.026 291.903C252.879 292.72 250.504 292.634 248.419 291.664L241.769 288.556L87.7889 216.425C85.709 215.446 84.0925 213.664 83.2931 211.469C82.4936 209.274 82.5762 206.844 83.5227 204.711L120.537 122.04L125.385 111.119C126.349 108.994 128.093 107.345 130.238 106.529C132.384 105.714 134.757 105.797 136.843 106.762L297.481 181.993C299.561 182.972 301.178 184.753 301.98 186.948C302.782 189.142 302.705 191.572 301.763 193.707Z" fill="white"/>
<path d="M108.412 149.083L284.761 231.691L264.122 277.814L87.7736 195.206L108.412 149.083Z" fill="#15399E"/>
<path opacity="0.3" d="M108.412 149.083L284.761 231.691L264.122 277.814L87.7736 195.206L108.412 149.083Z" fill="white"/>
<path d="M115.714 170.422L227.155 222.625L219.769 239.132L108.328 186.929L115.714 170.422Z" fill="#15399E"/>
<path opacity="0.8" d="M115.714 170.422L227.155 222.625L219.769 239.132L108.328 186.929L115.714 170.422Z" fill="white"/>
<path d="M114.448 132.275L290.938 215.637L279.827 240.264L103.337 156.902L114.448 132.275Z" fill="#15399E"/>
<path opacity="0.3" d="M114.448 132.275L290.938 215.637L279.827 240.264L103.337 156.902L114.448 132.275Z" fill="black"/>
<path d="M277.814 194.883L241.769 288.524L87.7884 216.394C85.7084 215.414 84.092 213.632 83.2926 211.437C82.4931 209.242 82.5757 206.812 83.5222 204.679L120.537 122.008L272.934 183.416C275.061 184.282 276.768 185.973 277.682 188.121C278.596 190.269 278.643 192.699 277.814 194.883Z" fill="#15399E"/>
<path d="M74.0062 165.281L74.7686 165.555L73.507 169.228L72.7447 168.954L74.0062 165.281Z" fill="#15399E"/>
<path opacity="0.1" d="M74.0062 165.281L74.7686 165.555L73.507 169.228L72.7447 168.954L74.0062 165.281Z" fill="white"/>
<path d="M80.3695 146.816L81.1318 147.09L76.1629 161.567L75.4006 161.293L80.3695 146.816Z" fill="#15399E"/>
<path opacity="0.1" d="M80.3695 146.816L81.1318 147.09L76.1629 161.567L75.4006 161.293L80.3695 146.816Z" fill="white"/>
<path d="M267.092 183.735L100.402 123.84C98.2394 123.07 95.8669 123.207 93.8032 124.222C91.7394 125.237 90.1523 127.046 89.3888 129.255L56.0507 226.385C55.2975 228.598 55.4304 231.026 56.4204 233.138C57.4105 235.251 59.1773 236.877 61.335 237.662L228.025 297.557C230.189 298.323 232.561 298.184 234.625 297.17C236.689 296.156 238.278 294.349 239.047 292.142L272.385 195.012C273.137 192.798 273.003 190.369 272.012 188.257C271.02 186.144 269.251 184.518 267.092 183.735Z" fill="#15399E"/>
<path opacity="0.1" d="M267.092 183.735L100.402 123.84C98.2394 123.07 95.8669 123.207 93.8032 124.222C91.7394 125.237 90.1523 127.046 89.3888 129.255L56.0507 226.385C55.2975 228.598 55.4304 231.026 56.4204 233.138C57.4105 235.251 59.1773 236.877 61.335 237.662L228.025 297.557C230.189 298.323 232.561 298.184 234.625 297.17C236.689 296.156 238.278 294.349 239.047 292.142L272.385 195.012C273.137 192.798 273.003 190.369 272.012 188.257C271.02 186.144 269.251 184.518 267.092 183.735Z" fill="white"/>
<path d="M76.6257 166.428L259.622 232.18L245.12 274.433L62.1232 208.681L76.6257 166.428Z" fill="#15399E"/>
<path opacity="0.3" d="M76.6257 166.428L259.622 232.18L245.12 274.433L62.1232 208.681L76.6257 166.428Z" fill="white"/>
<path d="M98.5312 145.865L136.359 159.457L134.29 165.487L96.4617 151.895L98.5312 145.865Z" fill="#15399E"/>
<path opacity="0.8" d="M98.5312 145.865L136.359 159.457L134.29 165.487L96.4617 151.895L98.5312 145.865Z" fill="white"/>
<path d="M73.1867 219.701L103.536 230.605L102.455 233.757L72.1051 222.852L73.1867 219.701Z" fill="#15399E"/>
<path opacity="0.8" d="M73.1867 219.701L103.536 230.605L102.455 233.757L72.1051 222.852L73.1867 219.701Z" fill="white"/>
<path d="M71.1225 225.729L110.231 239.781L109.15 242.933L70.0409 228.88L71.1225 225.729Z" fill="#15399E"/>
<path opacity="0.8" d="M71.1225 225.729L110.231 239.781L109.15 242.933L70.0409 228.88L71.1225 225.729Z" fill="white"/>
<path d="M210.572 271.763L230.126 278.789L227.799 285.567L208.245 278.541L210.572 271.763Z" fill="#15399E"/>
<path opacity="0.8" d="M210.572 271.763L230.126 278.789L227.799 285.567L208.245 278.541L210.572 271.763Z" fill="white"/>
<path d="M106.017 213.703L83.1832 205.502C81.9795 205.064 80.9935 204.157 80.4397 202.979C79.886 201.801 79.8091 200.447 80.2259 199.211C80.6543 197.98 81.5406 196.971 82.692 196.404C83.8435 195.838 85.167 195.759 86.3748 196.185L109.217 204.395C110.421 204.833 111.407 205.74 111.96 206.918C112.514 208.096 112.591 209.45 112.174 210.686C111.744 211.918 110.856 212.926 109.703 213.492C108.55 214.057 107.225 214.133 106.017 213.703Z" fill="#15399E"/>
<path d="M145.133 227.757L122.291 219.548C121.096 219.108 120.118 218.206 119.566 217.035C119.015 215.865 118.934 214.52 119.341 213.29C119.771 212.06 120.658 211.053 121.81 210.488C122.961 209.923 124.284 209.845 125.49 210.272L148.324 218.482C149.528 218.92 150.514 219.827 151.068 221.005C151.622 222.183 151.698 223.537 151.282 224.773C150.845 225.997 149.956 226.996 148.805 227.554C147.655 228.113 146.335 228.186 145.133 227.757Z" fill="#15399E"/>
<path d="M184.224 241.812L161.381 233.603C160.19 233.159 159.215 232.256 158.667 231.086C158.119 229.916 158.04 228.573 158.448 227.344C158.878 226.114 159.765 225.107 160.917 224.543C162.068 223.978 163.391 223.9 164.597 224.327L187.456 232.503C188.658 232.943 189.642 233.851 190.194 235.029C190.746 236.206 190.822 237.56 190.405 238.794C189.975 240.032 189.083 241.045 187.924 241.611C186.765 242.177 185.434 242.249 184.224 241.812Z" fill="#15399E"/>
<path d="M223.355 255.867L200.513 247.657C199.317 247.219 198.337 246.317 197.784 245.147C197.231 243.977 197.149 242.631 197.556 241.399C197.986 240.169 198.873 239.162 200.024 238.597C201.175 238.032 202.498 237.955 203.705 238.382L226.547 246.591C227.751 247.029 228.737 247.936 229.291 249.114C229.844 250.292 229.921 251.646 229.504 252.882C229.068 254.106 228.178 255.105 227.028 255.664C225.877 256.222 224.558 256.295 223.355 255.867Z" fill="#15399E"/>
<g opacity="0.8">
<path d="M106.017 213.703L83.1832 205.502C81.9795 205.064 80.9935 204.157 80.4397 202.979C79.886 201.801 79.8091 200.447 80.2259 199.211C80.6543 197.98 81.5406 196.971 82.692 196.404C83.8435 195.838 85.167 195.759 86.3748 196.185L109.217 204.395C110.421 204.833 111.407 205.74 111.96 206.918C112.514 208.096 112.591 209.45 112.174 210.686C111.744 211.918 110.856 212.926 109.703 213.492C108.55 214.057 107.225 214.133 106.017 213.703Z" fill="white"/>
<path d="M145.133 227.757L122.291 219.548C121.096 219.108 120.118 218.206 119.566 217.035C119.015 215.865 118.934 214.52 119.341 213.29C119.771 212.06 120.658 211.053 121.81 210.488C122.961 209.923 124.284 209.845 125.49 210.272L148.324 218.482C149.528 218.92 150.514 219.827 151.068 221.005C151.622 222.183 151.698 223.537 151.282 224.773C150.845 225.997 149.956 226.996 148.805 227.554C147.655 228.113 146.335 228.186 145.133 227.757Z" fill="white"/>
<path d="M184.224 241.812L161.381 233.603C160.19 233.159 159.215 232.256 158.667 231.086C158.119 229.916 158.04 228.573 158.448 227.344C158.878 226.114 159.765 225.107 160.917 224.543C162.068 223.978 163.391 223.9 164.597 224.327L187.456 232.503C188.658 232.943 189.642 233.851 190.194 235.029C190.746 236.206 190.822 237.56 190.405 238.794C189.975 240.032 189.083 241.045 187.924 241.611C186.765 242.177 185.434 242.249 184.224 241.812Z" fill="white"/>
<path d="M223.355 255.867L200.513 247.657C199.317 247.219 198.337 246.317 197.784 245.147C197.231 243.977 197.149 242.631 197.556 241.399C197.986 240.169 198.873 239.162 200.024 238.597C201.175 238.032 202.498 237.955 203.705 238.382L226.547 246.591C227.751 247.029 228.737 247.936 229.291 249.114C229.844 250.292 229.921 251.646 229.504 252.882C229.068 254.106 228.178 255.105 227.028 255.664C225.877 256.222 224.558 256.295 223.355 255.867Z" fill="white"/>
</g>
<path d="M94.1485 168.867L114.473 176.17C116.199 176.79 117.107 178.725 116.501 180.491L112.266 192.831C111.659 194.597 109.769 195.526 108.042 194.906L87.7179 187.603C85.9916 186.983 85.0836 185.048 85.6898 183.282L89.9252 170.942C90.5314 169.176 92.4223 168.247 94.1485 168.867Z" fill="#15399E"/>
<path opacity="0.3" d="M94.1485 168.867L114.473 176.17C116.199 176.79 117.107 178.725 116.501 180.491L112.266 192.831C111.659 194.597 109.769 195.526 108.042 194.906L87.7179 187.603C85.9916 186.983 85.0836 185.048 85.6898 183.282L89.9252 170.942C90.5314 169.176 92.4223 168.247 94.1485 168.867Z" fill="black"/>
<path d="M216.802 191.797C217.309 190.315 218.097 188.95 219.12 187.78C220.142 186.609 221.381 185.657 222.764 184.976C224.147 184.296 225.648 183.901 227.18 183.815C228.712 183.729 230.246 183.952 231.694 184.473L248.112 190.78L248.322 190.838L248.807 191.045L249.106 191.161C251.757 192.386 253.845 194.608 254.937 197.367C256.028 200.126 256.038 203.209 254.966 205.975C253.894 208.742 251.821 210.98 249.179 212.224C246.536 213.468 243.527 213.622 240.776 212.655L225.23 207.364C224.782 207.262 224.339 207.135 223.905 206.984C223.583 206.869 223.267 206.736 222.959 206.587C220.317 205.349 218.222 203.147 217.083 200.411C215.944 197.676 215.844 194.604 216.802 191.797Z" fill="#15399E"/>
<path opacity="0.8" d="M216.802 191.797C217.309 190.315 218.097 188.95 219.12 187.78C220.142 186.609 221.381 185.657 222.764 184.976C224.147 184.296 225.648 183.901 227.18 183.815C228.712 183.729 230.246 183.952 231.694 184.473L248.112 190.78L248.322 190.838L248.807 191.045L249.106 191.161C251.757 192.386 253.845 194.608 254.937 197.367C256.028 200.126 256.038 203.209 254.966 205.975C253.894 208.742 251.821 210.98 249.179 212.224C246.536 213.468 243.527 213.622 240.776 212.655L225.23 207.364C224.782 207.262 224.339 207.135 223.905 206.984C223.583 206.869 223.267 206.736 222.959 206.587C220.317 205.349 218.222 203.147 217.083 200.411C215.944 197.676 215.844 194.604 216.802 191.797Z" fill="white"/>
</g>
<defs>
<clipPath id="clip0_198_1987">
<rect width="404" height="308" fill="white" transform="matrix(-1 0 0 1 404 0)"/>
</clipPath>
</defs>
</svg>
