<svg width="19" height="23" viewBox="0 0 19 23" fill="none" xmlns="http://www.w3.org/2000/svg">
<path d="M9.5 0.25C6.39838 0.25 3.875 2.77338 3.875 5.875V9.25H2.75C1.50912 9.25 0.5 10.2591 0.5 11.5V20.5C0.5 21.7409 1.50912 22.75 2.75 22.75H16.25C17.4909 22.75 18.5 21.7409 18.5 20.5V11.5C18.5 10.2591 17.4909 9.25 16.25 9.25H15.125V5.875C15.125 2.77338 12.6016 0.25 9.5 0.25ZM16.25 11.5L16.2523 20.5H2.75V11.5H16.25ZM6.125 9.25V5.875C6.125 4.01425 7.63925 2.5 9.5 2.5C11.3608 2.5 12.875 4.01425 12.875 5.875V9.25H6.125Z" fill="#2B2C43"/>
</svg>
