<svg width="25" height="29" viewBox="0 0 25 29" fill="none" xmlns="http://www.w3.org/2000/svg">
<path d="M18.333 11.1224C18.333 18.8953 6.66634 18.8953 6.66634 11.1224H9.58301C9.58301 15.0161 15.4163 15.0161 15.4163 11.1224M24.1663 24.2474V28.6224H0.833008V24.2474C0.833008 20.3536 8.60592 18.4141 12.4997 18.4141C16.3934 18.4141 24.1663 20.3536 24.1663 24.2474ZM21.3955 24.2474C21.3955 23.3141 16.8309 21.1849 12.4997 21.1849C8.16842 21.1849 3.60384 23.3141 3.60384 24.2474V25.8516H21.3955M13.2288 0.914062C13.6372 0.914062 13.958 1.2349 13.958 1.64323V6.01823H15.4163V2.3724C16.4484 2.85003 17.3131 3.62684 17.8982 4.60202C18.4833 5.5772 18.7618 6.70572 18.6976 7.84115C18.6976 7.84115 19.7184 8.04531 19.7913 9.66406H5.20801C5.20801 8.04531 6.30176 7.84115 6.30176 7.84115C6.23752 6.70572 6.51603 5.5772 7.10113 4.60202C7.68624 3.62684 8.55093 2.85003 9.58301 2.3724V6.01823H11.0413V1.64323C11.0413 1.2349 11.3622 0.914062 11.7705 0.914062" fill="#15399E"/>
</svg>
