<svg width="24" height="24" viewBox="0 0 24 24" fill="none" xmlns="http://www.w3.org/2000/svg">
<path fill-rule="evenodd" clip-rule="evenodd" d="M12 1.875C6.417 1.875 1.875 6.417 1.875 12C1.875 17.583 6.417 22.125 12 22.125C17.583 22.125 22.125 17.583 22.125 12C22.125 6.417 17.583 1.875 12 1.875ZM12 19.875C7.658 19.875 4.125 16.342 4.125 12C4.125 7.658 7.658 4.125 12 4.125C16.342 4.125 19.875 7.658 19.875 12C19.875 16.342 16.342 19.875 12 19.875ZM11 13.409L16.205 8.205L17.795 9.795L11 16.591L7.205 12.795L8.795 11.205L11 13.409Z" fill="#15399E"/>
</svg>
